<svg width="57" height="57" viewBox="0 0 57 57" fill="none" xmlns="http://www.w3.org/2000/svg">
<path d="M55.1873 2.01562C54.0255 0.671875 52.5335 0 50.7102 0H50.644H6.28765H6.22036C4.3982 0 2.9062 0.672927 1.7433 2.01562C0.58145 3.36043 0 4.96704 0 6.83441V29.9347V50.1635C0 52.034 0.591965 53.6385 1.77695 54.9833C2.96088 56.326 4.46444 57 6.28765 57H24.1949H32.7368H50.644C52.4662 57 53.9697 56.326 55.1537 54.9833C56.3397 53.6385 56.9306 52.034 56.9306 50.1635V29.9347V6.83441C56.9317 4.96704 56.3502 3.36043 55.1873 2.01562ZM54.0612 50.1635C54.0612 51.3033 53.7426 52.2496 53.1044 53.0013C52.4672 53.7531 51.646 54.1285 50.644 54.1285H32.7368H24.1949H6.28765C5.28457 54.1285 4.46444 53.7531 3.82727 53.0013C3.18904 52.2496 2.87045 51.3033 2.87045 50.1635V6.83441C2.87045 5.69569 3.18904 4.75044 3.82727 3.9976C4.46444 3.24582 5.28457 2.87045 6.28765 2.87045H50.644C51.646 2.87045 52.4662 3.24582 53.1044 3.9976C53.7426 4.74939 54.0612 5.69569 54.0612 6.83441V50.1635Z" fill="black"/>
<path d="M26.385 29.5762H13.857C13.5563 29.5762 13.306 29.6782 13.1052 29.8779C12.9044 30.0777 12.8045 30.328 12.8045 30.6308V43.1598C12.8045 43.4248 12.9044 43.6603 13.1052 43.859C13.305 44.0599 13.5563 44.1608 13.857 44.1608H26.386C26.6521 44.1608 26.8949 44.0599 27.1126 43.859C27.3302 43.6603 27.4385 43.4248 27.4385 43.1598V30.6308C27.4385 30.328 27.3292 30.0788 27.1126 29.8779C26.8939 29.6782 26.6521 29.5762 26.385 29.5762ZM25.3335 42.1052H14.9085V31.6328H25.3335V42.1052Z" fill="black"/>
<path d="M43.0746 12.8391H30.5456C30.2764 12.8391 30.0346 12.9485 29.819 13.1651C29.6014 13.3827 29.492 13.6256 29.492 13.8916V26.4196C29.492 26.7203 29.6014 26.9706 29.819 27.1714C30.0346 27.3712 30.2775 27.4732 30.5456 27.4732H43.0746C43.3743 27.4732 43.6245 27.3712 43.8264 27.1714C44.0251 26.9716 44.1261 26.7203 44.1261 26.4196V13.8916C44.1261 13.6245 44.0251 13.3827 43.8264 13.1651C43.6245 12.9485 43.3743 12.8391 43.0746 12.8391ZM42.0211 25.3671H31.5991V14.9441H42.0211V25.3671Z" fill="black"/>
<path d="M43.0746 29.5762H30.5456C30.2764 29.5762 30.0346 29.6782 29.819 29.8779C29.6014 30.0777 29.492 30.328 29.492 30.6308V43.1598C29.492 43.4248 29.6014 43.6603 29.819 43.859C30.0346 44.0599 30.2775 44.1608 30.5456 44.1608H43.0746C43.3743 44.1608 43.6245 44.0599 43.8264 43.859C44.0251 43.6603 44.1261 43.4248 44.1261 43.1598V30.6308C44.1261 30.328 44.0251 30.0788 43.8264 29.8779C43.6245 29.6782 43.3743 29.5762 43.0746 29.5762ZM42.0211 42.1052H31.5991V31.6328H42.0211V42.1052Z" fill="black"/>
<path d="M26.385 12.8391H13.857C13.5563 12.8391 13.306 12.9485 13.1052 13.1651C12.9044 13.3827 12.8045 13.6256 12.8045 13.8916V26.4196C12.8045 26.7203 12.9044 26.9706 13.1052 27.1714C13.305 27.3712 13.5563 27.4732 13.857 27.4732H26.386C26.6521 27.4732 26.8949 27.3712 27.1126 27.1714C27.3302 26.9716 27.4385 26.7203 27.4385 26.4196V13.8916C27.4385 13.6245 27.3292 13.3827 27.1126 13.1651C26.8939 12.9485 26.6521 12.8391 26.385 12.8391ZM25.3335 25.3671H14.9085V14.9441H25.3335V25.3671Z" fill="black"/>
</svg>
