<svg width="65" height="66" viewBox="0 0 65 66" fill="none" xmlns="http://www.w3.org/2000/svg">
<path d="M55.51 63.02C55.9433 63.02 56.2683 63.15 56.485 63.41C56.745 63.67 56.875 63.995 56.875 64.385C56.875 64.645 56.7667 64.905 56.55 65.165C56.3333 65.425 56.0733 65.62 55.77 65.75H9.49C9.05667 65.75 8.71 65.62 8.45 65.36C8.23333 65.1433 8.125 64.8183 8.125 64.385C8.125 64.125 8.23333 63.865 8.45 63.605C8.66667 63.3883 8.92667 63.1933 9.23 63.02H55.51ZM55.51 56.26C55.9433 56.26 56.2683 56.39 56.485 56.65C56.745 56.91 56.875 57.235 56.875 57.625C56.875 58.015 56.745 58.34 56.485 58.6C56.2683 58.86 55.9433 58.99 55.51 58.99H9.49C9.05667 58.99 8.71 58.86 8.45 58.6C8.23333 58.3833 8.125 58.0583 8.125 57.625C8.125 57.1917 8.23333 56.845 8.45 56.585C8.71 56.3683 9.05667 56.26 9.49 56.26H55.51ZM44.72 46.77C45.11 46.77 45.4133 46.9 45.63 47.16C45.89 47.42 46.02 47.745 46.02 48.135C46.02 48.525 45.89 48.85 45.63 49.11C45.4133 49.37 45.11 49.5 44.72 49.5H20.345C19.9117 49.5 19.565 49.3917 19.305 49.175C19.0883 48.915 18.98 48.5683 18.98 48.135C18.98 47.7017 19.0883 47.3767 19.305 47.16C19.565 46.9 19.9117 46.77 20.345 46.77H44.72ZM32.5 0.749998C36.14 0.749998 39.5417 1.68166 42.705 3.545C45.7817 5.365 48.23 7.81333 50.05 10.89C51.9133 14.01 52.845 17.39 52.845 21.03C52.845 24.67 51.9133 28.0717 50.05 31.235C48.23 34.3117 45.7817 36.76 42.705 38.58C39.5417 40.4433 36.14 41.375 32.5 41.375C28.86 41.375 25.4583 40.4433 22.295 38.58C19.2617 36.76 16.835 34.3117 15.015 31.235C13.1517 28.0717 12.22 24.67 12.22 21.03C12.22 17.39 13.1517 14.01 15.015 10.89C16.835 7.81333 19.2617 5.365 22.295 3.545C25.4583 1.68166 28.86 0.749998 32.5 0.749998ZM32.5 3.48C29.2933 3.48 26.3467 4.26 23.66 5.82C20.9733 7.38 18.8283 9.50333 17.225 12.19C15.665 14.8767 14.885 17.8233 14.885 21.03C14.885 24.2367 15.665 27.1833 17.225 29.87C18.8283 32.5567 20.9733 34.7017 23.66 36.305C26.3467 37.865 29.2933 38.645 32.5 38.645C35.7067 38.645 38.6533 37.865 41.34 36.305C44.0267 34.7017 46.15 32.5567 47.71 29.87C49.3133 27.1833 50.115 24.2367 50.115 21.03C50.115 17.8233 49.3133 14.8767 47.71 12.19C46.15 9.50333 44.0267 7.38 41.34 5.82C38.6533 4.26 35.7067 3.48 32.5 3.48ZM32.5 8.875C32.8033 8.875 33.0633 8.94 33.28 9.07C33.4967 9.2 33.605 9.395 33.605 9.655L36.595 15.375L43.095 16.155C43.355 16.155 43.6367 16.35 43.94 16.74L44.135 17C44.265 17.2167 44.2867 17.455 44.2 17.715C44.1567 17.975 44.0483 18.1917 43.875 18.365L39.26 22.98L40.365 29.48C40.365 29.8267 40.3433 30.065 40.3 30.195C40.2133 30.455 40.0617 30.65 39.845 30.78C39.195 31.1267 38.74 31.1267 38.48 30.78L32.5 28.115L26.845 31.105C26.195 31.365 25.74 31.365 25.48 31.105C25.22 30.975 25.0467 30.78 24.96 30.52C24.9167 30.3467 24.895 30.0867 24.895 29.74L26 23.24L21.125 18.625C20.9517 18.4517 20.865 17.9967 20.865 17.26C20.995 17 21.1467 16.805 21.32 16.675C21.4933 16.545 21.71 16.48 21.97 16.48L28.47 15.635L31.395 9.98C31.395 9.59 31.5033 9.30833 31.72 9.135C31.9367 8.96167 32.1967 8.875 32.5 8.875ZM32.5 13.23L30.615 17.26C30.2683 17.6067 29.9 17.8883 29.51 18.105L25.22 18.625L28.47 21.615C28.6433 21.745 28.7517 21.9183 28.795 22.135C28.8817 22.3517 28.86 22.525 28.73 22.655L27.885 27.01L31.98 24.865C32.24 24.605 32.695 24.605 33.345 24.865L37.375 27.01L36.595 22.655C36.595 22.3517 36.595 22.135 36.595 22.005C36.6383 21.875 36.725 21.745 36.855 21.615L40.105 18.625L35.75 18.105C35.49 18.105 35.2733 18.04 35.1 17.91C34.97 17.78 34.8183 17.5633 34.645 17.26L32.5 13.23Z" fill="black"/>
</svg>
