<svg width="50" height="42" viewBox="0 0 50 42" fill="none" xmlns="http://www.w3.org/2000/svg">
<path d="M10.4004 17V2.40039C10.4004 1.84701 10.1888 1.375 9.76562 0.984375C9.375 0.561198 8.90299 0.349609 8.34961 0.349609C7.76367 0.349609 7.25911 0.561198 6.83594 0.984375C6.44531 1.375 6.25 1.84701 6.25 2.40039V17C6.25 17.5859 6.44531 18.0905 6.83594 18.5137C7.25911 18.9043 7.76367 19.0996 8.34961 19.0996C8.90299 19.0996 9.375 18.9043 9.76562 18.5137C10.1888 18.0905 10.4004 17.5859 10.4004 17ZM27.0996 39.9004V21.1504C27.0996 20.597 26.888 20.125 26.4648 19.7344C26.0742 19.3112 25.5859 19.0996 25 19.0996C24.4141 19.0996 23.9095 19.3112 23.4863 19.7344C23.0957 20.125 22.9004 20.597 22.9004 21.1504V39.9004C22.9004 40.4863 23.0957 40.9909 23.4863 41.4141C23.9095 41.8047 24.4141 42 25 42C25.5859 42 26.0742 41.8047 26.4648 41.4141C26.888 40.9909 27.0996 40.4863 27.0996 39.9004ZM43.75 21.1504V2.40039C43.75 1.84701 43.5384 1.375 43.1152 0.984375C42.7246 0.561198 42.2363 0.349609 41.6504 0.349609C41.097 0.349609 40.6087 0.561198 40.1855 0.984375C39.7949 1.375 39.5996 1.84701 39.5996 2.40039V21.1504C39.5996 21.7363 39.7949 22.2409 40.1855 22.6641C40.6087 23.0547 41.097 23.25 41.6504 23.25C42.2363 23.25 42.7246 23.0547 43.1152 22.6641C43.5384 22.2409 43.75 21.7363 43.75 21.1504ZM2.09961 27.4004H6.25V39.9004C6.25 40.4863 6.44531 40.9909 6.83594 41.4141C7.25911 41.8047 7.76367 42 8.34961 42C8.90299 42 9.375 41.8047 9.76562 41.4141C10.1888 40.9909 10.4004 40.4863 10.4004 39.9004V27.4004H14.5996C15.153 27.4004 15.625 27.2051 16.0156 26.8145C16.4388 26.3913 16.6504 25.903 16.6504 25.3496C16.6504 24.7637 16.4388 24.2754 16.0156 23.8848C15.625 23.4616 15.153 23.25 14.5996 23.25H2.09961C1.51367 23.25 1.00911 23.4616 0.585938 23.8848C0.195312 24.2754 0 24.7637 0 25.3496C0 25.903 0.195312 26.3913 0.585938 26.8145C1.00911 27.2051 1.51367 27.4004 2.09961 27.4004ZM18.75 14.9004H31.25C31.8359 14.9004 32.3242 14.7051 32.7148 14.3145C33.138 13.8913 33.3496 13.403 33.3496 12.8496C33.3496 12.2637 33.138 11.7754 32.7148 11.3848C32.3242 10.9616 31.8359 10.75 31.25 10.75H27.0996V2.40039C27.0996 1.84701 26.888 1.375 26.4648 0.984375C26.0742 0.561198 25.5859 0.349609 25 0.349609C24.4141 0.349609 23.9095 0.561198 23.4863 0.984375C23.0957 1.375 22.9004 1.84701 22.9004 2.40039V10.75H18.75C18.1641 10.75 17.6595 10.9616 17.2363 11.3848C16.8457 11.7754 16.6504 12.2637 16.6504 12.8496C16.6504 13.403 16.8457 13.8913 17.2363 14.3145C17.6595 14.7051 18.1641 14.9004 18.75 14.9004ZM35.4004 31.5996H39.5996V39.9004C39.5996 40.4863 39.7949 40.9909 40.1855 41.4141C40.6087 41.8047 41.097 42 41.6504 42C42.2363 42 42.7246 41.8047 43.1152 41.4141C43.5384 40.9909 43.75 40.4863 43.75 39.9004V31.5996H47.9004C48.4863 31.5996 48.9746 31.4043 49.3652 31.0137C49.7884 30.5905 50 30.0859 50 29.5C50 28.9141 49.7884 28.4258 49.3652 28.0352C48.9746 27.612 48.4863 27.4004 47.9004 27.4004H35.4004C34.847 27.4004 34.3587 27.612 33.9355 28.0352C33.5449 28.4258 33.3496 28.9141 33.3496 29.5C33.3496 30.0859 33.5449 30.5905 33.9355 31.0137C34.3587 31.4043 34.847 31.5996 35.4004 31.5996Z" fill="#666666"/>
</svg>
