<svg width="55" height="55" viewBox="0 0 55 55" fill="none" xmlns="http://www.w3.org/2000/svg">
<path d="M52.487 1.917C51.382 0.639 49.963 0 48.229 0H48.166H5.98H5.916C4.183 0 2.764 0.64 1.658 1.917C0.553 3.196 0 4.724 0 6.5V28.47V47.709C0 49.488 0.563 51.014 1.69 52.293C2.816 53.57 4.246 54.211 5.98 54.211H23.011H31.135H48.166C49.899 54.211 51.329 53.57 52.455 52.293C53.583 51.014 54.145 49.488 54.145 47.709V28.47V6.5C54.146 4.724 53.593 3.196 52.487 1.917ZM51.416 47.709C51.416 48.793 51.113 49.693 50.506 50.408C49.9 51.123 49.119 51.48 48.166 51.48H31.135H23.011H5.98C5.026 51.48 4.246 51.123 3.64 50.408C3.033 49.693 2.73 48.793 2.73 47.709V6.5C2.73 5.417 3.033 4.518 3.64 3.802C4.246 3.087 5.026 2.73 5.98 2.73H48.166C49.119 2.73 49.899 3.087 50.506 3.802C51.113 4.517 51.416 5.417 51.416 6.5V47.709Z" fill="black"/>
<path d="M17.356 32.144C17.2067 32.2933 17.132 32.4847 17.132 32.718V36.162H13.632C13.044 36.162 12.75 36.456 12.75 37.044C12.75 37.6227 13.044 37.912 13.632 37.912H17.132V41.356C17.132 41.6267 17.2067 41.8413 17.356 42C17.5147 42.1587 17.7293 42.238 18 42.238C18.28 42.238 18.476 42.1587 18.588 42C18.6907 41.8973 18.7607 41.804 18.798 41.72C18.854 41.608 18.882 41.4867 18.882 41.356V37.912H22.312C22.9 37.912 23.194 37.6227 23.194 37.044C23.194 36.456 22.9 36.162 22.312 36.162H18.882V32.718C18.882 32.5967 18.8587 32.494 18.812 32.41C18.7747 32.3167 18.7047 32.228 18.602 32.144C18.5087 32.06 18.4153 31.9993 18.322 31.962C18.2287 31.9247 18.1213 31.906 18 31.906C17.7293 31.906 17.5147 31.9853 17.356 32.144Z" fill="black"/>
<path d="M17.356 12.144C17.2067 12.2933 17.132 12.4847 17.132 12.718V16.162H13.632C13.044 16.162 12.75 16.456 12.75 17.044C12.75 17.6227 13.044 17.912 13.632 17.912H17.132V21.356C17.132 21.6267 17.2067 21.8413 17.356 22C17.5147 22.1587 17.7293 22.238 18 22.238C18.28 22.238 18.476 22.1587 18.588 22C18.6907 21.8973 18.7607 21.804 18.798 21.72C18.854 21.608 18.882 21.4867 18.882 21.356V17.912H22.312C22.9 17.912 23.194 17.6227 23.194 17.044C23.194 16.456 22.9 16.162 22.312 16.162H18.882V12.718C18.882 12.5967 18.8587 12.494 18.812 12.41C18.7747 12.3167 18.7047 12.228 18.602 12.144C18.5087 12.06 18.4153 11.9993 18.322 11.962C18.2287 11.9247 18.1213 11.906 18 11.906C17.7293 11.906 17.5147 11.9853 17.356 12.144Z" fill="black"/>
<path d="M36.356 12.144C36.2067 12.2933 36.132 12.4847 36.132 12.718V16.162H32.632C32.044 16.162 31.75 16.456 31.75 17.044C31.75 17.6227 32.044 17.912 32.632 17.912H36.132V21.356C36.132 21.6267 36.2067 21.8413 36.356 22C36.5147 22.1587 36.7293 22.238 37 22.238C37.28 22.238 37.476 22.1587 37.588 22C37.6907 21.8973 37.7607 21.804 37.798 21.72C37.854 21.608 37.882 21.4867 37.882 21.356V17.912H41.312C41.9 17.912 42.194 17.6227 42.194 17.044C42.194 16.456 41.9 16.162 41.312 16.162H37.882V12.718C37.882 12.5967 37.8587 12.494 37.812 12.41C37.7747 12.3167 37.7047 12.228 37.602 12.144C37.5087 12.06 37.4153 11.9993 37.322 11.962C37.2287 11.9247 37.1213 11.906 37 11.906C36.7293 11.906 36.5147 11.9853 36.356 12.144Z" fill="black"/>
</svg>
