<svg width="67" height="67" viewBox="0 0 67 67" fill="none" xmlns="http://www.w3.org/2000/svg">
<path d="M57.1458 55.3035C56.922 55.3035 56.6974 55.2251 56.5164 55.0655C56.1221 54.7177 56.0843 54.1161 56.4321 53.7216C61.5216 47.9511 64.2262 40.5236 64.0477 32.8074C63.8687 25.0654 60.7966 17.7466 55.3971 12.1991C49.7295 6.37604 42.1685 3.07742 34.1072 2.91087C26.0564 2.74533 18.3823 5.71629 12.4972 11.2788C12.115 11.6401 11.5125 11.623 11.1512 11.2408C10.79 10.8587 10.807 10.2561 11.1892 9.8949C17.4402 3.98675 25.5939 0.830443 34.1465 1.00703C42.7113 1.18399 50.743 4.68699 56.7618 10.871C62.4977 16.7642 65.7614 24.5391 65.9516 32.7633C66.1411 40.9599 63.2676 48.8504 57.8604 54.9812C57.6721 55.1946 57.4096 55.3035 57.1458 55.3035Z" fill="black" stroke="black" stroke-width="0.5"/>
<path d="M33.4501 66.0001C28.2885 66.0001 23.2196 64.7778 18.6034 62.3986C18.0261 62.101 17.3522 62.0324 16.7058 62.2056L6.00905 65.0718C4.84494 65.3836 3.64172 65.0613 2.78965 64.2092C1.9377 63.3573 1.61525 62.1538 1.92704 60.9899L4.79327 50.2932C4.96655 49.6468 4.89826 48.9732 4.60094 48.3966C1.71504 42.7978 0.528327 36.509 1.16929 30.2098C1.81863 23.8267 4.31252 17.8411 8.38133 12.8998C8.71545 12.4939 9.31554 12.4357 9.72152 12.77C10.1274 13.1043 10.1855 13.7044 9.85126 14.1102C6.022 18.7606 3.67499 24.3943 3.06373 30.4025C2.46035 36.3336 3.57723 42.2542 6.29367 47.5239C6.80844 48.5225 6.92879 49.681 6.63275 50.786L3.76651 61.4826C3.63284 61.9815 3.77108 62.4974 4.13631 62.8627C4.50142 63.2279 5.01759 63.366 5.51624 63.2325L16.2131 60.3662C17.3181 60.0702 18.4769 60.1908 19.4759 60.7058C24.8872 63.4949 30.961 64.5949 37.0411 63.8868C43.2127 63.168 48.9421 60.6259 53.61 56.5351C54.0054 56.1885 54.607 56.2281 54.9536 56.6236C55.3001 57.019 55.2605 57.6206 54.8651 57.9672C49.9056 62.3135 43.8183 65.0146 37.2615 65.7782C35.9891 65.9264 34.7167 66.0001 33.4501 66.0001Z" fill="black" stroke="black" stroke-width="0.5"/>
<path d="M46.0951 22.0546H33.4808C32.955 22.0546 32.5287 21.6283 32.5287 21.1025C32.5287 20.5767 32.955 20.1504 33.4808 20.1504H46.0951C46.621 20.1504 47.0473 20.5767 47.0473 21.1025C47.0473 21.6284 46.621 22.0546 46.0951 22.0546Z" fill="black"/>
<path d="M46.0951 28.2527H20.8667C20.3408 28.2527 19.9146 27.8264 19.9146 27.3006C19.9146 26.7748 20.3408 26.3485 20.8667 26.3485H46.0951C46.621 26.3485 47.0473 26.7748 47.0473 27.3006C47.0473 27.8264 46.621 28.2527 46.0951 28.2527Z" fill="black"/>
<path d="M46.0951 34.451H20.8667C20.3408 34.451 19.9146 34.0247 19.9146 33.4989C19.9146 32.973 20.3408 32.5468 20.8667 32.5468H46.0951C46.621 32.5468 47.0473 32.973 47.0473 33.4989C47.0473 34.0247 46.621 34.451 46.0951 34.451Z" fill="black"/>
<path d="M46.0951 40.6491H20.8667C20.3408 40.6491 19.9146 40.2228 19.9146 39.697C19.9146 39.1712 20.3408 38.7449 20.8667 38.7449H46.0951C46.621 38.7449 47.0473 39.1712 47.0473 39.697C47.0473 40.2228 46.621 40.6491 46.0951 40.6491Z" fill="black"/>
<path d="M33.481 46.8471H20.8667C20.3408 46.8471 19.9146 46.4208 19.9146 45.895C19.9146 45.3692 20.3408 44.9429 20.8667 44.9429H33.481C34.0068 44.9429 34.4331 45.3692 34.4331 45.895C34.4331 46.4208 34.0068 46.8471 33.481 46.8471Z" fill="black"/>
</svg>
