<svg width="65" height="65" viewBox="0 0 65 65" fill="none" xmlns="http://www.w3.org/2000/svg">
<path d="M29.9 51.23C31.0267 51.23 31.98 51.62 32.76 52.4C33.5833 53.18 33.995 54.1333 33.995 55.26C33.995 56.3867 33.5833 57.34 32.76 58.12C31.98 58.9433 31.0267 59.355 29.9 59.355C28.7733 59.355 27.7983 58.9433 26.975 58.12C26.1517 57.34 25.74 56.3867 25.74 55.26C25.74 54.1333 26.1517 53.18 26.975 52.4C27.7983 51.62 28.7733 51.23 29.9 51.23ZM46.15 51.23C47.2767 51.23 48.23 51.62 49.01 52.4C49.8333 53.18 50.245 54.1333 50.245 55.26C50.245 56.3867 49.8333 57.34 49.01 58.12C48.23 58.9433 47.2767 59.355 46.15 59.355C45.0233 59.355 44.0483 58.9433 43.225 58.12C42.4017 57.34 41.99 56.3867 41.99 55.26C41.99 54.1333 42.4017 53.18 43.225 52.4C44.0483 51.62 45.0233 51.23 46.15 51.23ZM15.21 16.065L24.245 45.315C24.3317 45.4883 24.44 45.64 24.57 45.77C24.7 45.8567 24.8517 45.9 25.025 45.9H49.725C50.115 45.9 50.3967 45.705 50.57 45.315L59.54 17.17V16.975C59.54 16.715 59.4533 16.52 59.28 16.39C59.1067 16.2167 58.9117 16.13 58.695 16.13L15.21 16.065ZM14.365 13.4H58.695C59.6917 13.4 60.5367 13.7467 61.23 14.44C61.9233 15.1333 62.27 15.9567 62.27 16.91C62.27 17.2567 62.205 17.625 62.075 18.015L53.105 46.16C52.8883 46.8967 52.455 47.5033 51.805 47.98C51.1983 48.4133 50.505 48.63 49.725 48.63H25.025C24.2883 48.63 23.595 48.3917 22.945 47.915C22.295 47.4383 21.8617 46.8317 21.645 46.095L12.09 15.155C11.44 12.9017 10.4 10.8 8.97 8.85C7.67 7.11666 6.045 6.25 4.095 6.25C3.705 6.25 3.38 6.12 3.12 5.86C2.86 5.6 2.73 5.275 2.73 4.885C2.73 4.495 2.86 4.17 3.12 3.91C3.38 3.65 3.705 3.52 4.095 3.52C7.04167 3.52 9.40333 4.77666 11.18 7.29C12.6533 9.37 13.715 11.4067 14.365 13.4Z" fill="black"/>
</svg>
