<svg width="65" height="65" viewBox="0 0 65 65" fill="none" xmlns="http://www.w3.org/2000/svg">
<path d="M40.1839 13.1853C40.0719 12.8406 39.7739 12.5894 39.4152 12.5373L35.2266 11.9287L33.3534 8.13321C33.193 7.80821 32.8621 7.60242 32.4996 7.60242C32.1373 7.60242 31.8062 7.80821 31.6457 8.13321L29.7725 11.9287L25.584 12.5373C25.2253 12.5894 24.9274 12.8406 24.8154 13.1853C24.7034 13.53 24.7969 13.9084 25.0564 14.1613L28.0872 17.1156L27.3717 21.2873C27.3105 21.6446 27.4573 22.0056 27.7506 22.2185C28.0437 22.4316 28.4324 22.4597 28.7532 22.291L32.4996 20.3213L36.2459 22.291C36.3853 22.3643 36.5374 22.4003 36.6888 22.4003C36.8862 22.4003 37.0828 22.339 37.2486 22.2185C37.5418 22.0055 37.6887 21.6444 37.6273 21.2873L36.9119 17.1156L39.9428 14.1613C40.2025 13.9084 40.2958 13.5301 40.1839 13.1853ZM35.2244 16.1015C35 16.3203 34.8976 16.6355 34.9507 16.9443L35.4245 19.7079L32.9427 18.4031C32.8041 18.3302 32.6518 18.2938 32.4996 18.2938C32.3474 18.2938 32.1952 18.3302 32.0566 18.4031L29.5748 19.7079L30.0488 16.9444C30.1017 16.6355 29.9994 16.3203 29.775 16.1015L27.7672 14.1444L30.5419 13.7412C30.852 13.6962 31.12 13.5014 31.2588 13.2203L32.4996 10.706L33.7405 13.2203C33.8792 13.5013 34.1472 13.6962 34.4574 13.7412L37.2321 14.1444L35.2244 16.1015Z" fill="black"/>
<path d="M44.3463 12.1805H44.1309C43.605 12.1805 43.1788 12.6069 43.1788 13.1327C43.1788 13.6585 43.6051 14.0848 44.1309 14.0848H44.3463C44.8722 14.0848 45.2984 13.6585 45.2984 13.1327C45.2984 12.6069 44.8722 12.1805 44.3463 12.1805Z" fill="black"/>
<path d="M44.3463 15.9185H44.1309C43.605 15.9185 43.1788 16.3448 43.1788 16.8706C43.1788 17.3964 43.6051 17.8228 44.1309 17.8228H44.3463C44.8722 17.8228 45.2984 17.3964 45.2984 16.8706C45.2984 16.3448 44.8722 15.9185 44.3463 15.9185Z" fill="black"/>
<path d="M20.8684 12.1805H20.653C20.1271 12.1805 19.7008 12.6069 19.7008 13.1327C19.7008 13.6585 20.1271 14.0848 20.653 14.0848H20.8684C21.3943 14.0848 21.8206 13.6585 21.8206 13.1327C21.8206 12.6069 21.3943 12.1805 20.8684 12.1805Z" fill="black"/>
<path d="M20.8684 15.9185H20.653C20.1271 15.9185 19.7008 16.3448 19.7008 16.8706C19.7008 17.3964 20.1271 17.8228 20.653 17.8228H20.8684C21.3943 17.8228 21.8206 17.3964 21.8206 16.8706C21.8206 16.3448 21.3943 15.9185 20.8684 15.9185Z" fill="black"/>
<path d="M60.2752 30.9319C59.9367 30.7463 59.5778 30.6319 59.2146 30.585V15.0617C59.2146 12.982 57.5226 11.2899 55.4428 11.2899H54.332V3.2043C54.3321 1.43749 52.8941 0 51.1266 0H13.8722C12.1054 0 10.6679 1.43749 10.6679 3.2043V5.48057C10.6679 6.00641 11.0942 6.43271 11.62 6.43271C12.1459 6.43271 12.5722 6.00641 12.5722 5.48057V3.2043C12.5722 2.48752 13.1554 1.9043 13.8722 1.9043H51.1266C51.8441 1.9043 52.4278 2.48752 52.4278 3.2043V34.108L32.8338 46.6082C32.4818 46.8325 32.0288 46.8307 31.6789 46.6035L12.5722 34.1977V9.33105C12.5722 8.80521 12.1459 8.37891 11.62 8.37891C11.0942 8.37891 10.6679 8.80521 10.6679 9.33105V11.2899H9.55703C7.47728 11.2899 5.78525 12.982 5.78525 15.0617V30.6255C5.42331 30.6707 5.06695 30.7814 4.73522 30.9615C3.77711 31.4817 3.18182 32.4822 3.18182 33.5725V62.0287C3.18182 63.667 4.5147 64.9999 6.15303 64.9999H7.42676C7.9526 64.9999 8.3789 64.5736 8.3789 64.0477C8.3789 63.5219 7.9526 63.0956 7.42676 63.0956H6.15316C5.56486 63.0956 5.08625 62.617 5.08625 62.0287V33.5726C5.08625 33.1751 5.29483 32.8246 5.64408 32.6349C5.99345 32.4454 6.40085 32.4613 6.7341 32.6777L30.6418 48.2007C31.6159 48.8333 32.8784 48.8384 33.8579 48.2136L58.273 32.6379C58.6061 32.4252 59.0125 32.4115 59.3597 32.6018C59.7066 32.792 59.9138 33.1417 59.9138 33.5375V53.5533C59.9138 54.0791 60.3399 54.5054 60.8659 54.5054C61.3919 54.5054 61.8181 54.0791 61.8181 53.5533V33.5373C61.8182 32.4355 61.2414 31.4615 60.2752 30.9319ZM10.6679 32.9613L7.77118 31.0805C7.74439 31.0631 7.71672 31.0479 7.68955 31.0314V15.0617C7.68955 14.032 8.52731 13.1942 9.55703 13.1942H10.6679V32.9613ZM57.3105 30.9959C57.29 31.0083 57.2691 31.0195 57.2489 31.0324L54.3321 32.8932V13.1942H55.443C56.4727 13.1942 57.3105 14.032 57.3105 15.0617V30.9959V30.9959Z" fill="black"/>
<path d="M60.866 56.4518C60.3401 56.4518 59.9139 56.8781 59.9139 57.4039V62.0288C59.9139 62.6171 59.4351 63.0957 58.847 63.0957H11.2776C10.7518 63.0957 10.3255 63.5221 10.3255 64.0479C10.3255 64.5737 10.7518 65 11.2776 65H58.847C60.4853 65 61.8182 63.6672 61.8182 62.0288V57.4039C61.8182 56.8781 61.3919 56.4518 60.866 56.4518Z" fill="black"/>
<path d="M38.4584 26.9885H26.5415C26.0156 26.9885 25.5893 27.4148 25.5893 27.9407C25.5893 28.4665 26.0156 28.8928 26.5415 28.8928H38.4584C38.9844 28.8928 39.4106 28.4665 39.4106 27.9407C39.4106 27.4148 38.9844 26.9885 38.4584 26.9885Z" fill="black"/>
<path d="M43.7275 31.8187H21.2725C20.7467 31.8187 20.3204 32.245 20.3204 32.7709C20.3204 33.2967 20.7467 33.723 21.2725 33.723H43.7275C44.2534 33.723 44.6796 33.2967 44.6796 32.7709C44.6796 32.245 44.2534 31.8187 43.7275 31.8187Z" fill="black"/>
<path d="M43.7275 34.9688H21.2725C20.7467 34.9688 20.3204 35.3951 20.3204 35.9209C20.3204 36.4467 20.7467 36.873 21.2725 36.873H43.7275C44.2534 36.873 44.6796 36.4467 44.6796 35.9209C44.6796 35.3951 44.2534 34.9688 43.7275 34.9688Z" fill="black"/>
<path d="M38.3539 38.1188H26.6462C26.1204 38.1188 25.694 38.5451 25.694 39.0709C25.694 39.5968 26.1204 40.0231 26.6462 40.0231H38.3539C38.8799 40.0231 39.3061 39.5968 39.3061 39.0709C39.3061 38.5451 38.8799 38.1188 38.3539 38.1188Z" fill="black"/>
</svg>
