<svg width="57" height="58" viewBox="0 0 57 58" fill="none" xmlns="http://www.w3.org/2000/svg">
<path d="M37.3613 18.8175C36.7687 18.8175 36.2886 19.0123 35.9244 19.3986C35.5591 19.7871 35.3759 20.2661 35.3759 20.8356C35.3759 21.4062 35.5591 21.8862 35.9244 22.2726C36.2897 22.661 36.7687 22.8537 37.3613 22.8537C37.954 22.8537 38.433 22.66 38.7973 22.2726C39.1626 21.8852 39.3457 21.4062 39.3457 20.8356C39.3457 20.265 39.1626 19.7871 38.7973 19.3986C38.433 19.0123 37.954 18.8175 37.3613 18.8175Z" fill="black"/>
<path d="M32.6746 21.383C31.4187 20.6303 30.0396 20.2534 28.5332 20.2534C27.0278 20.2534 25.6361 20.6198 24.3591 21.3483C23.0821 22.0788 22.0778 23.0821 21.3493 24.3591C20.6198 25.636 20.2545 27.0277 20.2545 28.5331C20.2545 30.0385 20.6198 31.4302 21.3493 32.7072C22.0778 33.9852 23.0821 34.9895 24.3591 35.718C25.6361 36.4475 27.0278 36.8128 28.5332 36.8128C30.0396 36.8128 31.4176 36.437 32.6746 35.6843C33.9284 34.9316 34.9327 33.9284 35.6843 32.6735C36.437 31.4197 36.8129 30.0385 36.8129 28.5331C36.8129 27.0277 36.437 25.6487 35.6843 24.3927C34.9327 23.14 33.9284 22.1357 32.6746 21.383ZM32.3314 32.3998C31.2597 33.4273 29.9933 33.9399 28.5342 33.9399C27.0751 33.9399 25.8076 33.4273 24.737 32.3998C23.6653 31.3734 23.1295 30.0859 23.1295 28.5342C23.1295 26.9835 23.6664 25.695 24.737 24.6686C25.8076 23.6422 27.0751 23.1295 28.5342 23.1295C29.9933 23.1295 31.2608 23.6422 32.3314 24.6686C33.402 25.695 33.94 26.9846 33.94 28.5342C33.94 30.0859 33.402 31.3734 32.3314 32.3998Z" fill="black"/>
<path d="M39.3794 14.1296C37.8972 13.2864 36.2665 12.8643 34.4874 12.8643H22.5126C20.7335 12.8643 19.1028 13.2864 17.6206 14.1296C16.1383 14.9739 14.974 16.1372 14.1318 17.6194C13.2865 19.1027 12.8654 20.7334 12.8654 22.5115V34.8294C12.8654 36.6075 13.2865 38.2392 14.1318 39.7204C14.9751 41.2037 16.1383 42.368 17.6206 43.2102C19.1028 44.0556 20.7335 44.4766 22.5126 44.4766H34.4874C36.2665 44.4766 37.8972 44.0556 39.3794 43.2102C40.8617 42.367 42.0355 41.2037 42.904 39.7204C43.7693 38.2392 44.2041 36.6075 44.2041 34.8294V22.5125C44.2041 20.7334 43.7693 19.1027 42.904 17.6205C42.0365 16.1382 40.8617 14.975 39.3794 14.1296ZM41.6049 34.8294C41.6049 36.0611 41.2964 37.2023 40.6806 38.2508C40.0648 39.3004 39.232 40.132 38.1835 40.7479C37.1329 41.3637 35.9939 41.6722 34.7622 41.6722H22.5126C21.2809 41.6722 20.1408 41.3637 19.0912 40.7479C18.0417 40.132 17.21 39.3004 16.5942 38.2508C15.9783 37.2023 15.6699 36.0611 15.6699 34.8294V22.5125C15.6699 21.2808 15.9783 20.1418 16.5942 19.0911C17.21 18.0426 18.0417 17.2099 19.0912 16.5941C20.1408 15.9782 21.2809 15.6698 22.5126 15.6698H34.4874C35.6728 15.6698 36.8023 15.9772 37.8751 16.5941C38.9468 17.2099 39.8142 18.0426 40.4753 19.0911C41.1364 20.1418 41.5123 21.2808 41.6049 22.5125V34.8294V34.8294Z" fill="black"/>
<path d="M55.2546 2.01808C54.0913 0.672694 52.5975 0 50.7721 0H50.7057H6.29532H6.22794C4.40356 0 2.90974 0.673747 1.74542 2.01808C0.582159 3.36452 0 4.97309 0 6.84274V29.9712V50.2246C0 52.0974 0.592686 53.7039 1.77911 55.0503C2.96448 56.3947 4.46989 57.0695 6.29532 57.0695H24.2243H32.7767H50.7057C52.5301 57.0695 54.0355 56.3947 55.2209 55.0503C56.4084 53.7039 57 52.0974 57 50.2246V29.9712V6.84274C57.0011 4.97309 56.4189 3.36452 55.2546 2.01808ZM54.1271 50.2246C54.1271 51.3658 53.8081 52.3132 53.1691 53.0659C52.5312 53.8186 51.709 54.1945 50.7057 54.1945H32.7767H24.2243H6.29532C5.29101 54.1945 4.46989 53.8186 3.83193 53.0659C3.19293 52.3132 2.87395 51.3658 2.87395 50.2246V6.84274C2.87395 5.70263 3.19293 4.75623 3.83193 4.00247C4.46989 3.24977 5.29101 2.87395 6.29532 2.87395H50.7057C51.709 2.87395 52.5301 3.24977 53.1691 4.00247C53.8081 4.75518 54.1271 5.70263 54.1271 6.84274V50.2246Z" fill="black"/>
</svg>
