<svg width="54" height="53" viewBox="0 0 54 53" fill="none" xmlns="http://www.w3.org/2000/svg">
<path d="M51.1403 20.2426C50.1759 19.2465 49.7318 17.8888 49.9285 16.5121L50.1062 15.2559C50.6391 11.4937 48.1267 8.02971 44.3835 7.37624L43.1337 7.15419C41.7697 6.9131 40.6086 6.07564 39.9615 4.85118L39.3652 3.73458C37.5824 0.378412 33.5157 -0.947558 30.1024 0.727352L28.9604 1.27931C27.7169 1.88837 26.2831 1.88837 25.0396 1.27931L23.904 0.721008C20.4907 -0.947559 16.424 0.372068 14.6412 3.72823L14.0448 4.84484C13.3914 6.0693 12.2367 6.9131 10.8726 7.14784L9.62281 7.36989C5.87963 8.02336 3.36727 11.4874 3.90019 15.2496L4.07784 16.5058C4.27451 17.8825 3.83041 19.2402 2.86606 20.2363L1.9842 21.1435C-0.661399 23.8716 -0.661399 28.154 1.9842 30.8821L2.86606 31.7957C3.83041 32.7917 4.27451 34.1494 4.07784 35.5262L3.90019 36.7823C3.36727 40.5445 5.87963 44.0086 9.62281 44.662L10.8726 44.8841C12.2367 45.1252 13.3977 45.9626 14.0448 47.1871L14.6412 48.3037C15.9037 50.6765 18.3019 52.0342 20.8143 52.0342C21.8484 52.0342 22.9079 51.7994 23.904 51.3109L25.0396 50.7653C26.2831 50.1562 27.7169 50.1562 28.9604 50.7653L30.096 51.3236C33.5093 52.9922 37.576 51.6725 39.3588 48.3164L39.9552 47.1998C40.6086 45.9753 41.7633 45.1315 43.1274 44.8968L44.3772 44.6747C48.1204 44.0213 50.6327 40.5572 50.0998 36.795L49.9222 35.5388C49.7255 34.1621 50.1696 32.8044 51.1339 31.8084L52.0158 30.9011C54.6614 28.173 54.6614 23.8906 52.0158 21.1625L51.1403 20.2426ZM50.195 29.131L49.3131 30.0383C47.8031 31.599 47.1053 33.737 47.4098 35.8878L47.5874 37.144C47.93 39.5421 46.3249 41.75 43.9394 42.1687L42.6896 42.3908C40.5452 42.7651 38.7307 44.0847 37.7156 46.007L37.1192 47.1236C35.9836 49.2617 33.3888 50.1118 31.2127 49.046L30.077 48.4877C28.123 47.5297 25.877 47.5297 23.923 48.4877L22.7873 49.046C20.6112 50.1118 18.0164 49.268 16.8807 47.1236L16.2844 46.007C15.2629 44.0847 13.4485 42.7651 11.3104 42.3908L10.0606 42.1687C7.67509 41.75 6.06996 39.5421 6.41256 37.144L6.5902 35.8878C6.89473 33.7307 6.2032 31.599 4.68689 30.0383L3.80503 29.1247C2.11743 27.38 2.11743 24.6583 3.80503 22.9136L4.68689 22.0063C6.19685 20.4456 6.89473 18.3076 6.5902 16.1568L6.41256 14.9006C6.06996 12.5025 7.67509 10.2946 10.0606 9.87592L11.3104 9.65386C13.4548 9.27955 15.2693 7.95992 16.2844 6.03758L16.8807 4.92097C17.6865 3.40467 19.2155 2.54184 20.8143 2.54184C21.4741 2.54184 22.1466 2.68776 22.7873 2.99863L23.923 3.55694C25.877 4.51493 28.123 4.51493 30.077 3.55694L31.2127 2.99863C33.3888 1.93278 35.9836 2.77658 37.1192 4.92097L37.7156 6.03758C38.7371 7.95992 40.5516 9.27955 42.6896 9.65386L43.9394 9.87592C46.3249 10.2946 47.93 12.5025 47.5874 14.9006L47.4098 16.1568C47.1053 18.3139 47.7968 20.4456 49.3131 22.0063L50.195 22.9199C51.8826 24.6583 51.8826 27.3863 50.195 29.131Z" fill="black"/>
<path d="M37.0939 15.9285C36.599 15.4336 35.7933 15.4336 35.2984 15.9285L16.9061 34.3207C16.4113 34.8156 16.4113 35.6213 16.9061 36.1162C17.1536 36.3636 17.4771 36.4905 17.8007 36.4905C18.1243 36.4905 18.4478 36.3636 18.6953 36.1162L37.0876 17.7239C37.5888 17.229 37.5888 16.4233 37.0939 15.9285Z" fill="black"/>
<path d="M21.8421 22.6661C23.2251 22.6661 24.6019 22.1396 25.655 21.0864C27.755 18.9864 27.755 15.5605 25.655 13.4605C23.5551 11.3605 20.1291 11.3605 18.0291 13.4605C17.0077 14.4756 16.4494 15.8333 16.4494 17.2734C16.4494 18.7136 17.0077 20.0713 18.0291 21.0864C19.0823 22.1396 20.459 22.6661 21.8421 22.6661ZM19.8246 15.2559C20.3829 14.6976 21.1125 14.4185 21.8421 14.4185C22.5717 14.4185 23.3013 14.6976 23.8596 15.2559C24.9698 16.3662 24.9698 18.1807 23.8596 19.2909C22.743 20.4012 20.9348 20.4012 19.8246 19.2909C19.2853 18.7517 18.9871 18.0348 18.9871 17.2734C18.9871 16.5121 19.2853 15.7952 19.8246 15.2559Z" fill="black"/>
<path d="M28.345 30.9582C26.245 33.0582 26.245 36.4842 28.345 38.5841C29.3982 39.6373 30.7749 40.1639 32.158 40.1639C33.541 40.1639 34.9178 39.6373 35.9709 38.5841C36.9924 37.5627 37.5507 36.2114 37.5507 34.7712C37.5507 33.331 36.9924 31.9733 35.9709 30.9582C33.8709 28.8519 30.4513 28.8519 28.345 30.9582V30.9582ZM34.1755 36.7887C33.0652 37.899 31.2507 37.899 30.1405 36.7887C29.0302 35.6784 29.0302 33.8639 30.1405 32.7537C30.6988 32.1954 31.4284 31.9162 32.158 31.9162C32.8876 31.9162 33.6172 32.1954 34.1755 32.7537C34.7147 33.2929 35.0129 34.0099 35.0129 34.7712C35.0129 35.5325 34.7147 36.2494 34.1755 36.7887Z" fill="black"/>
</svg>
