<svg width="65" height="65" viewBox="0 0 65 65" fill="none" xmlns="http://www.w3.org/2000/svg">
<path d="M62.4609 29.9609H2.53906C1.13674 29.9609 0 31.0977 0 32.5C0 33.9023 1.13674 35.0391 2.53906 35.0391H62.4609C63.8633 35.0391 65 33.9023 65 32.5C65 31.0977 63.8633 29.9609 62.4609 29.9609Z" fill="black"/>
<path d="M62.4609 9.64844H2.53906C1.13674 9.64844 0 10.7852 0 12.1875C0 13.5898 1.13674 14.7266 2.53906 14.7266H62.4609C63.8633 14.7266 65 13.5898 65 12.1875C65 10.7852 63.8633 9.64844 62.4609 9.64844Z" fill="black"/>
<path d="M62.4609 50.2734H2.53906C1.13674 50.2734 0 51.4102 0 52.8125C0 54.2148 1.13674 55.3516 2.53906 55.3516H62.4609C63.8633 55.3516 65 54.2148 65 52.8125C65 51.4102 63.8633 50.2734 62.4609 50.2734Z" fill="black"/>
</svg>
