<svg width="65" height="58" viewBox="0 0 65 58" fill="none" xmlns="http://www.w3.org/2000/svg">
<path d="M58.24 0.779997C60.0167 0.779997 61.555 1.32166 62.855 2.405C64.155 3.48833 64.87 4.83166 65 6.435V51.61C65 53.2133 64.3933 54.6 63.18 55.77C61.9667 56.94 60.4717 57.5683 58.695 57.655L58.24 57.72H6.76C4.98333 57.72 3.445 57.1783 2.145 56.095C0.845 55.0117 0.13 53.6683 0 52.065V6.89C0 5.28667 0.606667 3.9 1.82 2.73C3.03333 1.56 4.52833 0.931664 6.305 0.844996L6.76 0.779997H58.24ZM58.24 3.51H6.76C5.72 3.51 4.81 3.81333 4.03 4.42C3.25 4.98333 2.81667 5.69833 2.73 6.565V51.61C2.73 52.4767 3.07667 53.235 3.77 53.885C4.46333 54.535 5.33 54.8817 6.37 54.925L6.76 54.99H58.24C59.28 54.99 60.19 54.6867 60.97 54.08C61.75 53.5167 62.1833 52.8017 62.27 51.935V6.89C62.27 6.02333 61.9233 5.265 61.23 4.615C60.5367 3.965 59.67 3.61833 58.63 3.575L58.24 3.51ZM54.145 44.135C54.535 44.135 54.86 44.265 55.12 44.525C55.38 44.785 55.51 45.11 55.51 45.5C55.51 45.8467 55.4017 46.15 55.185 46.41C54.9683 46.6267 54.7083 46.7567 54.405 46.8L54.145 46.865H10.855C10.465 46.865 10.14 46.735 9.88 46.475C9.62 46.215 9.49 45.9117 9.49 45.565C9.49 45.175 9.59833 44.8717 9.815 44.655C10.0317 44.395 10.2917 44.2433 10.595 44.2L10.855 44.135H54.145ZM54.145 36.01C54.535 36.01 54.86 36.14 55.12 36.4C55.38 36.66 55.51 36.985 55.51 37.375C55.51 37.7217 55.4017 38.025 55.185 38.285C54.9683 38.5017 54.7083 38.6317 54.405 38.675L54.145 38.74H10.855C10.465 38.74 10.14 38.61 9.88 38.35C9.62 38.09 9.49 37.7867 9.49 37.44C9.49 37.05 9.59833 36.7467 9.815 36.53C10.0317 36.27 10.2917 36.1183 10.595 36.075L10.855 36.01H54.145ZM18.785 12.285L18.85 12.545L25.675 31.525C25.7617 31.8717 25.7183 32.2183 25.545 32.565C25.415 32.8683 25.1767 33.085 24.83 33.215C24.5267 33.345 24.2233 33.345 23.92 33.215C23.6167 33.085 23.3783 32.89 23.205 32.63L23.075 32.435L21.45 27.885H13.715L12.09 32.435C12.0033 32.7383 11.8083 32.9767 11.505 33.15C11.2017 33.28 10.8983 33.3233 10.595 33.28H10.4C10.0967 33.15 9.85833 32.955 9.685 32.695C9.51167 32.3917 9.44667 32.0883 9.49 31.785L9.555 31.525L16.315 12.545C16.5317 11.9817 16.9217 11.6783 17.485 11.635C18.0483 11.5917 18.4817 11.8083 18.785 12.285ZM54.145 27.885C54.535 27.885 54.86 28.015 55.12 28.275C55.38 28.535 55.51 28.86 55.51 29.25C55.51 29.5967 55.4017 29.9 55.185 30.16C54.9683 30.3767 54.7083 30.5067 54.405 30.55L54.145 30.615H32.5C32.11 30.615 31.785 30.485 31.525 30.225C31.265 29.965 31.135 29.6617 31.135 29.315C31.135 28.9683 31.2433 28.665 31.46 28.405C31.6767 28.145 31.9367 27.9933 32.24 27.95L32.5 27.885H54.145ZM17.615 17.03L14.69 25.155H20.475L17.615 17.03ZM54.145 19.76C54.535 19.76 54.86 19.89 55.12 20.15C55.38 20.41 55.51 20.735 55.51 21.125C55.51 21.4717 55.4017 21.775 55.185 22.035C54.9683 22.2517 54.7083 22.3817 54.405 22.425L54.145 22.49H32.5C32.11 22.49 31.785 22.36 31.525 22.1C31.265 21.84 31.135 21.5367 31.135 21.19C31.135 20.8433 31.2433 20.54 31.46 20.28C31.6767 20.02 31.9367 19.8683 32.24 19.825L32.5 19.76H54.145ZM54.145 11.635C54.535 11.635 54.86 11.765 55.12 12.025C55.38 12.285 55.51 12.61 55.51 13C55.51 13.3467 55.4017 13.65 55.185 13.91C54.9683 14.1267 54.7083 14.2567 54.405 14.3L54.145 14.365H32.5C32.11 14.365 31.785 14.235 31.525 13.975C31.265 13.715 31.135 13.4117 31.135 13.065C31.135 12.7183 31.2433 12.415 31.46 12.155C31.6767 11.895 31.9367 11.7433 32.24 11.7L32.5 11.635H54.145Z" fill="black"/>
</svg>
