<svg width="53" height="60" viewBox="0 0 53 60" fill="none" xmlns="http://www.w3.org/2000/svg">
<path d="M52 18.3054C52 16.4064 51.2605 14.621 49.9177 13.2782L39.722 3.08252C38.3792 1.73971 36.5939 1.00023 34.6948 1.00023L6.85923 1C3.62852 1 1 3.62841 1 6.85923V9.57102C1 10.0422 1.38186 10.4241 1.85312 10.4241C2.32438 10.4241 2.70624 10.0422 2.70624 9.57102V6.85923C2.70624 4.56923 4.56923 2.70624 6.85923 2.70624L33.6378 2.70647C35.1801 2.71238 36.4331 3.9692 36.4331 5.51346V10.7084C36.4331 13.9385 39.0615 16.5665 42.2923 16.5665H47.4872C49.0347 16.5665 50.2934 17.8258 50.2934 19.3738V53.3803C50.2934 55.6704 48.4309 57.5333 46.1416 57.5333H6.85923C4.56923 57.5333 2.70624 55.6704 2.70624 53.3803V12.9835C2.70624 12.5123 2.32438 12.1304 1.85312 12.1304C1.38186 12.1304 1 12.5123 1 12.9835V53.3805C1 56.6113 3.62841 59.2397 6.85923 59.2397H46.1414C49.3716 59.2397 51.9995 56.6113 51.9995 53.3805L52 18.3054ZM42.2922 14.8604C40.0022 14.8604 38.1392 12.9978 38.1392 10.7085V5.51358C38.1392 4.84473 37.9919 4.21012 37.7298 3.63864C38.0085 3.82861 38.2718 4.04541 38.5156 4.28918L48.7113 14.4849C48.9547 14.7283 49.1713 14.9914 49.3611 15.2697C48.7899 15.0078 48.1556 14.8605 47.4871 14.8605H42.2922V14.8604Z" fill="black" stroke="black" stroke-width="0.8"/>
<mask id="path-2-inside-1_104_46" fill="white">
<path d="M9.19269 34.8281C9.19269 35.2992 9.57454 35.6812 10.0458 35.6812H42.9545C43.4258 35.6812 43.8076 35.2992 43.8076 34.8281C43.8076 34.3569 43.4258 33.975 42.9545 33.975H10.0458C9.57466 33.975 9.19269 34.3569 9.19269 34.8281V34.8281Z"/>
</mask>
<path d="M9.19269 34.8281C9.19269 35.2992 9.57454 35.6812 10.0458 35.6812H42.9545C43.4258 35.6812 43.8076 35.2992 43.8076 34.8281C43.8076 34.3569 43.4258 33.975 42.9545 33.975H10.0458C9.57466 33.975 9.19269 34.3569 9.19269 34.8281V34.8281Z" fill="black"/>
<path d="M7.19269 34.8281C7.19269 36.4036 8.4698 37.6812 10.0458 37.6812V33.6812C10.6793 33.6812 11.1927 34.1949 11.1927 34.8281H7.19269ZM10.0458 37.6812H42.9545V33.6812H10.0458V37.6812ZM42.9545 37.6812C44.5305 37.6812 45.8076 36.4036 45.8076 34.8281H41.8076C41.8076 34.1949 42.321 33.6812 42.9545 33.6812V37.6812ZM45.8076 34.8281C45.8076 33.2526 44.5305 31.975 42.9545 31.975V35.975C42.321 35.975 41.8076 35.4613 41.8076 34.8281H45.8076ZM42.9545 31.975H10.0458V35.975H42.9545V31.975ZM10.0458 31.975C8.47009 31.975 7.19269 33.2524 7.19269 34.8281H11.1927C11.1927 35.4615 10.6792 35.975 10.0458 35.975V31.975Z" fill="black" mask="url(#path-2-inside-1_104_46)"/>
<mask id="path-4-inside-2_104_46" fill="white">
<path d="M42.9542 40.0468H38.2938C37.8225 40.0468 37.4406 40.4287 37.4406 40.8999C37.4406 41.371 37.8225 41.753 38.2938 41.753H42.9542C43.4255 41.753 43.8073 41.371 43.8073 40.8999C43.8073 40.4287 43.4253 40.0468 42.9542 40.0468Z"/>
</mask>
<path d="M42.9542 40.0468H38.2938C37.8225 40.0468 37.4406 40.4287 37.4406 40.8999C37.4406 41.371 37.8225 41.753 38.2938 41.753H42.9542C43.4255 41.753 43.8073 41.371 43.8073 40.8999C43.8073 40.4287 43.4253 40.0468 42.9542 40.0468Z" fill="black"/>
<path d="M42.9542 38.0468H38.2938V42.0468H42.9542V38.0468ZM38.2938 38.0468C36.7178 38.0468 35.4406 39.3243 35.4406 40.8999H39.4406C39.4406 41.5331 38.9272 42.0468 38.2938 42.0468V38.0468ZM35.4406 40.8999C35.4406 42.4754 36.7178 43.753 38.2938 43.753V39.753C38.9272 39.753 39.4406 40.2666 39.4406 40.8999H35.4406ZM38.2938 43.753H42.9542V39.753H38.2938V43.753ZM42.9542 43.753C44.5302 43.753 45.8073 42.4754 45.8073 40.8999H41.8073C41.8073 40.2666 42.3207 39.753 42.9542 39.753V43.753ZM45.8073 40.8999C45.8073 39.3242 44.5299 38.0468 42.9542 38.0468V42.0468C42.3208 42.0468 41.8073 41.5333 41.8073 40.8999H45.8073Z" fill="black" mask="url(#path-4-inside-2_104_46)"/>
<mask id="path-6-inside-3_104_46" fill="white">
<path d="M10.0464 40.0468C9.57512 40.0468 9.19327 40.4287 9.19327 40.8999C9.19327 41.371 9.57512 41.753 10.0464 41.753H34.8837C35.355 41.753 35.7368 41.371 35.7368 40.8999C35.7368 40.4287 35.355 40.0468 34.8837 40.0468H10.0464Z"/>
</mask>
<path d="M10.0464 40.0468C9.57512 40.0468 9.19327 40.4287 9.19327 40.8999C9.19327 41.371 9.57512 41.753 10.0464 41.753H34.8837C35.355 41.753 35.7368 41.371 35.7368 40.8999C35.7368 40.4287 35.355 40.0468 34.8837 40.0468H10.0464Z" fill="black"/>
<path d="M10.0464 38.0468C8.47038 38.0468 7.19327 39.3243 7.19327 40.8999H11.1933C11.1933 41.5331 10.6799 42.0468 10.0464 42.0468V38.0468ZM7.19327 40.8999C7.19327 42.4754 8.47038 43.753 10.0464 43.753V39.753C10.6799 39.753 11.1933 40.2666 11.1933 40.8999H7.19327ZM10.0464 43.753H34.8837V39.753H10.0464V43.753ZM34.8837 43.753C36.4597 43.753 37.7368 42.4754 37.7368 40.8999H33.7368C33.7368 40.2666 34.2502 39.753 34.8837 39.753V43.753ZM37.7368 40.8999C37.7368 39.3243 36.4597 38.0468 34.8837 38.0468V42.0468C34.2502 42.0468 33.7368 41.5331 33.7368 40.8999H37.7368ZM34.8837 38.0468H10.0464V42.0468H34.8837V38.0468Z" fill="black" mask="url(#path-6-inside-3_104_46)"/>
<mask id="path-8-inside-4_104_46" fill="white">
<path d="M10.0458 47.8236H26.82C27.2912 47.8236 27.6731 47.4416 27.6731 46.9705C27.6731 46.4993 27.2912 46.1174 26.82 46.1174H10.0458C9.57454 46.1174 9.19269 46.4993 9.19269 46.9705C9.19269 47.4416 9.57466 47.8236 10.0458 47.8236V47.8236Z"/>
</mask>
<path d="M10.0458 47.8236H26.82C27.2912 47.8236 27.6731 47.4416 27.6731 46.9705C27.6731 46.4993 27.2912 46.1174 26.82 46.1174H10.0458C9.57454 46.1174 9.19269 46.4993 9.19269 46.9705C9.19269 47.4416 9.57466 47.8236 10.0458 47.8236V47.8236Z" fill="black"/>
<path d="M10.0458 49.8236H26.82V45.8236H10.0458V49.8236ZM26.82 49.8236C28.396 49.8236 29.6731 48.546 29.6731 46.9705H25.6731C25.6731 46.3372 26.1865 45.8236 26.82 45.8236V49.8236ZM29.6731 46.9705C29.6731 45.3949 28.396 44.1174 26.82 44.1174V48.1174C26.1865 48.1174 25.6731 47.6037 25.6731 46.9705H29.6731ZM26.82 44.1174H10.0458V48.1174H26.82V44.1174ZM10.0458 44.1174C8.4698 44.1174 7.19269 45.3949 7.19269 46.9705H11.1927C11.1927 47.6037 10.6793 48.1174 10.0458 48.1174V44.1174ZM7.19269 46.9705C7.19269 48.5462 8.47009 49.8236 10.0458 49.8236V45.8236C10.6792 45.8236 11.1927 46.3371 11.1927 46.9705H7.19269Z" fill="black" mask="url(#path-8-inside-4_104_46)"/>
<mask id="path-10-inside-5_104_46" fill="white">
<path d="M20.4077 29.5723L21.1838 27.5344H26.3634L27.1315 29.5699C27.2604 29.9115 27.5851 30.122 27.9298 30.122C28.0299 30.122 28.1317 30.1043 28.2309 30.0668C28.6717 29.9005 28.8942 29.4082 28.7278 28.9675L24.8071 18.5784C24.8042 18.5705 24.801 18.5627 24.7979 18.5548C24.6287 18.1439 24.2323 17.8785 23.7881 17.8785C23.7876 17.8785 23.7872 17.8785 23.7869 17.8785C23.3421 17.8789 22.9458 18.1453 22.7774 18.557C22.7748 18.5635 22.7722 18.5698 22.7698 18.5763L18.8132 28.965C18.6454 29.4053 18.8665 29.8982 19.3067 30.0658C19.7469 30.2335 20.2399 30.0126 20.4077 29.5723V29.5723ZM23.7855 20.7036L25.7195 25.8282H21.8337L23.7855 20.7036Z"/>
</mask>
<path d="M20.4077 29.5723L21.1838 27.5344H26.3634L27.1315 29.5699C27.2604 29.9115 27.5851 30.122 27.9298 30.122C28.0299 30.122 28.1317 30.1043 28.2309 30.0668C28.6717 29.9005 28.8942 29.4082 28.7278 28.9675L24.8071 18.5784C24.8042 18.5705 24.801 18.5627 24.7979 18.5548C24.6287 18.1439 24.2323 17.8785 23.7881 17.8785C23.7876 17.8785 23.7872 17.8785 23.7869 17.8785C23.3421 17.8789 22.9458 18.1453 22.7774 18.557C22.7748 18.5635 22.7722 18.5698 22.7698 18.5763L18.8132 28.965C18.6454 29.4053 18.8665 29.8982 19.3067 30.0658C19.7469 30.2335 20.2399 30.0126 20.4077 29.5723V29.5723ZM23.7855 20.7036L25.7195 25.8282H21.8337L23.7855 20.7036Z" fill="black"/>
<path d="M21.1838 27.5344V25.5344H19.8054L19.3148 26.8226L21.1838 27.5344ZM26.3634 27.5344L28.2346 26.8283L27.7463 25.5344H26.3634V27.5344ZM27.1315 29.5699L29.0028 28.8639L29.0027 28.8637L27.1315 29.5699ZM28.2309 30.0668L27.5249 28.1956L27.5249 28.1956L28.2309 30.0668ZM28.7278 28.9675L26.8566 29.6736L26.8567 29.6739L28.7278 28.9675ZM24.8071 18.5784L22.9267 19.2597L22.9312 19.2721L22.9359 19.2845L24.8071 18.5784ZM24.7979 18.5548L26.6511 17.8028L26.6473 17.7936L24.7979 18.5548ZM23.7869 17.8785L23.7869 15.8785L23.7848 15.8785L23.7869 17.8785ZM22.7774 18.557L20.9262 17.7999L20.9227 17.8086L22.7774 18.557ZM22.7698 18.5763L24.6388 19.2882L24.6427 19.278L24.6465 19.2677L22.7698 18.5763ZM18.8132 28.965L20.6821 29.6771L20.6822 29.6768L18.8132 28.965ZM23.7855 20.7036L25.6567 19.9974L23.7941 15.0619L21.9165 19.9917L23.7855 20.7036ZM25.7195 25.8282V27.8282H28.6119L27.5906 25.122L25.7195 25.8282ZM21.8337 25.8282L19.9646 25.1163L18.9318 27.8282H21.8337V25.8282ZM22.2767 30.2841L23.0528 28.2463L19.3148 26.8226L18.5387 28.8604L22.2767 30.2841ZM21.1838 29.5344H26.3634V25.5344H21.1838V29.5344ZM24.4922 28.2406L25.2604 30.276L29.0027 28.8637L28.2346 26.8283L24.4922 28.2406ZM25.2603 30.2759C25.6925 31.4214 26.7802 32.122 27.9298 32.122V28.122C28.3899 28.122 28.8284 28.4015 29.0028 28.8639L25.2603 30.2759ZM27.9298 32.122C28.2674 32.122 28.6087 32.0619 28.9369 31.9381L27.5249 28.1956C27.6548 28.1466 27.7924 28.122 27.9298 28.122V32.122ZM28.9369 31.9381C30.4115 31.3818 31.1554 29.7352 30.5989 28.261L26.8567 29.6739C26.633 29.0813 26.9319 28.4193 27.5249 28.1956L28.9369 31.9381ZM30.599 28.2613L26.6783 17.8722L22.9359 19.2845L26.8566 29.6736L30.599 28.2613ZM26.6875 17.8971C26.6695 17.8475 26.6517 17.8042 26.6511 17.8028L22.9446 19.3069C22.9469 19.3124 22.9449 19.3076 22.9424 19.3013C22.9396 19.2942 22.9338 19.2793 22.9267 19.2597L26.6875 17.8971ZM26.6473 17.7936C26.1696 16.6329 25.0426 15.8785 23.7881 15.8785V19.8785C23.4219 19.8785 23.0878 19.6548 22.9484 19.316L26.6473 17.7936ZM23.7881 15.8785C23.7881 15.8785 23.7881 15.8785 23.7881 15.8785C23.7881 15.8785 23.7881 15.8785 23.7881 15.8785C23.7881 15.8785 23.7881 15.8785 23.7881 15.8785C23.7881 15.8785 23.7881 15.8785 23.7881 15.8785C23.7881 15.8785 23.7881 15.8785 23.7881 15.8785C23.7881 15.8785 23.7881 15.8785 23.7881 15.8785C23.7881 15.8785 23.7881 15.8785 23.7881 15.8785C23.7881 15.8785 23.7881 15.8785 23.7881 15.8785C23.7881 15.8785 23.7881 15.8785 23.7881 15.8785C23.7881 15.8785 23.7881 15.8785 23.7881 15.8785C23.7881 15.8785 23.7881 15.8785 23.7881 15.8785C23.7881 15.8785 23.7881 15.8785 23.7881 15.8785C23.7881 15.8785 23.7881 15.8785 23.7881 15.8785C23.7881 15.8785 23.7881 15.8785 23.7881 15.8785C23.7881 15.8785 23.7881 15.8785 23.7881 15.8785C23.7881 15.8785 23.7881 15.8785 23.7881 15.8785C23.7881 15.8785 23.7881 15.8785 23.7881 15.8785C23.7881 15.8785 23.7881 15.8785 23.7881 15.8785C23.7881 15.8785 23.7881 15.8785 23.7881 15.8785C23.7881 15.8785 23.7881 15.8785 23.788 15.8785C23.788 15.8785 23.788 15.8785 23.788 15.8785C23.788 15.8785 23.788 15.8785 23.788 15.8785C23.788 15.8785 23.788 15.8785 23.788 15.8785C23.788 15.8785 23.788 15.8785 23.788 15.8785C23.788 15.8785 23.788 15.8785 23.788 15.8785C23.788 15.8785 23.788 15.8785 23.788 15.8785C23.788 15.8785 23.788 15.8785 23.788 15.8785C23.788 15.8785 23.788 15.8785 23.788 15.8785C23.788 15.8785 23.788 15.8785 23.788 15.8785C23.788 15.8785 23.788 15.8785 23.788 15.8785C23.788 15.8785 23.788 15.8785 23.788 15.8785C23.788 15.8785 23.788 15.8785 23.788 15.8785C23.788 15.8785 23.788 15.8785 23.788 15.8785C23.788 15.8785 23.788 15.8785 23.788 15.8785C23.788 15.8785 23.788 15.8785 23.788 15.8785C23.788 15.8785 23.788 15.8785 23.788 15.8785C23.788 15.8785 23.788 15.8785 23.788 15.8785C23.788 15.8785 23.788 15.8785 23.788 15.8785C23.788 15.8785 23.788 15.8785 23.788 15.8785C23.788 15.8785 23.788 15.8785 23.788 15.8785C23.788 15.8785 23.788 15.8785 23.788 15.8785C23.788 15.8785 23.788 15.8785 23.788 15.8785C23.788 15.8785 23.788 15.8785 23.788 15.8785C23.788 15.8785 23.788 15.8785 23.788 15.8785C23.788 15.8785 23.788 15.8785 23.788 15.8785C23.788 15.8785 23.788 15.8785 23.788 15.8785C23.788 15.8785 23.788 15.8785 23.788 15.8785C23.788 15.8785 23.788 15.8785 23.788 15.8785C23.788 15.8785 23.788 15.8785 23.788 15.8785C23.788 15.8785 23.788 15.8785 23.788 15.8785C23.788 15.8785 23.788 15.8785 23.788 15.8785C23.788 15.8785 23.788 15.8785 23.788 15.8785C23.788 15.8785 23.788 15.8785 23.788 15.8785C23.788 15.8785 23.788 15.8785 23.788 15.8785C23.788 15.8785 23.788 15.8785 23.788 15.8785C23.788 15.8785 23.788 15.8785 23.788 15.8785C23.788 15.8785 23.788 15.8785 23.788 15.8785C23.788 15.8785 23.7879 15.8785 23.7879 15.8785C23.7879 15.8785 23.7879 15.8785 23.7879 15.8785C23.7879 15.8785 23.7879 15.8785 23.7879 15.8785C23.7879 15.8785 23.7879 15.8785 23.7879 15.8785C23.7879 15.8785 23.7879 15.8785 23.7879 15.8785C23.7879 15.8785 23.7879 15.8785 23.7879 15.8785C23.7879 15.8785 23.7879 15.8785 23.7879 15.8785C23.7879 15.8785 23.7879 15.8785 23.7879 15.8785C23.7879 15.8785 23.7879 15.8785 23.7879 15.8785C23.7879 15.8785 23.7879 15.8785 23.7879 15.8785C23.7879 15.8785 23.7879 15.8785 23.7879 15.8785C23.7879 15.8785 23.7879 15.8785 23.7879 15.8785C23.7879 15.8785 23.7879 15.8785 23.7879 15.8785C23.7879 15.8785 23.7879 15.8785 23.7879 15.8785C23.7879 15.8785 23.7879 15.8785 23.7879 15.8785C23.7879 15.8785 23.7879 15.8785 23.7879 15.8785C23.7879 15.8785 23.7879 15.8785 23.7879 15.8785C23.7879 15.8785 23.7879 15.8785 23.7879 15.8785C23.7879 15.8785 23.7879 15.8785 23.7879 15.8785C23.7879 15.8785 23.7879 15.8785 23.7879 15.8785C23.7879 15.8785 23.7879 15.8785 23.7879 15.8785C23.7879 15.8785 23.7879 15.8785 23.7879 15.8785C23.7879 15.8785 23.7879 15.8785 23.7879 15.8785C23.7879 15.8785 23.7879 15.8785 23.7879 15.8785C23.7879 15.8785 23.7879 15.8785 23.7879 15.8785C23.7879 15.8785 23.7879 15.8785 23.7879 15.8785C23.7879 15.8785 23.7879 15.8785 23.7879 15.8785C23.7879 15.8785 23.7879 15.8785 23.7879 15.8785C23.7879 15.8785 23.7879 15.8785 23.7879 15.8785C23.7879 15.8785 23.7879 15.8785 23.7879 15.8785C23.7879 15.8785 23.7879 15.8785 23.7879 15.8785C23.7879 15.8785 23.7879 15.8785 23.7879 15.8785C23.7879 15.8785 23.7879 15.8785 23.7879 15.8785C23.7879 15.8785 23.7879 15.8785 23.7879 15.8785C23.7879 15.8785 23.7879 15.8785 23.7879 15.8785C23.7879 15.8785 23.7879 15.8785 23.7879 15.8785C23.7879 15.8785 23.7879 15.8785 23.7879 15.8785C23.7879 15.8785 23.7879 15.8785 23.7879 15.8785C23.7878 15.8785 23.7878 15.8785 23.7878 15.8785C23.7878 15.8785 23.7878 15.8785 23.7878 15.8785C23.7878 15.8785 23.7878 15.8785 23.7878 15.8785C23.7878 15.8785 23.7878 15.8785 23.7878 15.8785C23.7878 15.8785 23.7878 15.8785 23.7878 15.8785C23.7878 15.8785 23.7878 15.8785 23.7878 15.8785C23.7878 15.8785 23.7878 15.8785 23.7878 15.8785C23.7878 15.8785 23.7878 15.8785 23.7878 15.8785C23.7878 15.8785 23.7878 15.8785 23.7878 15.8785C23.7878 15.8785 23.7878 15.8785 23.7878 15.8785C23.7878 15.8785 23.7878 15.8785 23.7878 15.8785C23.7878 15.8785 23.7878 15.8785 23.7878 15.8785C23.7878 15.8785 23.7878 15.8785 23.7878 15.8785C23.7878 15.8785 23.7878 15.8785 23.7878 15.8785C23.7878 15.8785 23.7878 15.8785 23.7878 15.8785C23.7878 15.8785 23.7878 15.8785 23.7878 15.8785C23.7878 15.8785 23.7878 15.8785 23.7878 15.8785C23.7878 15.8785 23.7878 15.8785 23.7878 15.8785C23.7878 15.8785 23.7878 15.8785 23.7878 15.8785C23.7878 15.8785 23.7878 15.8785 23.7878 15.8785C23.7878 15.8785 23.7878 15.8785 23.7878 15.8785C23.7878 15.8785 23.7878 15.8785 23.7878 15.8785C23.7878 15.8785 23.7878 15.8785 23.7878 15.8785C23.7878 15.8785 23.7878 15.8785 23.7878 15.8785C23.7878 15.8785 23.7878 15.8785 23.7878 15.8785C23.7878 15.8785 23.7878 15.8785 23.7878 15.8785C23.7878 15.8785 23.7878 15.8785 23.7878 15.8785C23.7878 15.8785 23.7878 15.8785 23.7878 15.8785C23.7878 15.8785 23.7878 15.8785 23.7878 15.8785C23.7878 15.8785 23.7878 15.8785 23.7878 15.8785C23.7878 15.8785 23.7878 15.8785 23.7878 15.8785C23.7878 15.8785 23.7878 15.8785 23.7878 15.8785C23.7878 15.8785 23.7878 15.8785 23.7878 15.8785C23.7878 15.8785 23.7878 15.8785 23.7878 15.8785C23.7878 15.8785 23.7878 15.8785 23.7878 15.8785C23.7878 15.8785 23.7878 15.8785 23.7878 15.8785C23.7878 15.8785 23.7878 15.8785 23.7878 15.8785C23.7878 15.8785 23.7878 15.8785 23.7878 15.8785C23.7877 15.8785 23.7877 15.8785 23.7877 15.8785C23.7877 15.8785 23.7877 15.8785 23.7877 15.8785C23.7877 15.8785 23.7877 15.8785 23.7877 15.8785C23.7877 15.8785 23.7877 15.8785 23.7877 15.8785C23.7877 15.8785 23.7877 15.8785 23.7877 15.8785C23.7877 15.8785 23.7877 15.8785 23.7877 15.8785C23.7877 15.8785 23.7877 15.8785 23.7877 15.8785C23.7877 15.8785 23.7877 15.8785 23.7877 15.8785C23.7877 15.8785 23.7877 15.8785 23.7877 15.8785C23.7877 15.8785 23.7877 15.8785 23.7877 15.8785C23.7877 15.8785 23.7877 15.8785 23.7877 15.8785C23.7877 15.8785 23.7877 15.8785 23.7877 15.8785C23.7877 15.8785 23.7877 15.8785 23.7877 15.8785C23.7877 15.8785 23.7877 15.8785 23.7877 15.8785C23.7877 15.8785 23.7877 15.8785 23.7877 15.8785C23.7877 15.8785 23.7877 15.8785 23.7877 15.8785C23.7877 15.8785 23.7877 15.8785 23.7877 15.8785C23.7877 15.8785 23.7877 15.8785 23.7877 15.8785C23.7877 15.8785 23.7877 15.8785 23.7877 15.8785C23.7877 15.8785 23.7877 15.8785 23.7877 15.8785C23.7877 15.8785 23.7877 15.8785 23.7877 15.8785C23.7877 15.8785 23.7877 15.8785 23.7877 15.8785C23.7877 15.8785 23.7877 15.8785 23.7877 15.8785C23.7877 15.8785 23.7877 15.8785 23.7877 15.8785C23.7877 15.8785 23.7877 15.8785 23.7877 15.8785C23.7877 15.8785 23.7877 15.8785 23.7877 15.8785C23.7877 15.8785 23.7877 15.8785 23.7877 15.8785C23.7877 15.8785 23.7877 15.8785 23.7877 15.8785C23.7877 15.8785 23.7877 15.8785 23.7877 15.8785C23.7877 15.8785 23.7877 15.8785 23.7877 15.8785C23.7877 15.8785 23.7877 15.8785 23.7877 15.8785C23.7877 15.8785 23.7877 15.8785 23.7877 15.8785C23.7877 15.8785 23.7877 15.8785 23.7877 15.8785C23.7877 15.8785 23.7877 15.8785 23.7877 15.8785C23.7877 15.8785 23.7877 15.8785 23.7877 15.8785C23.7877 15.8785 23.7877 15.8785 23.7877 15.8785C23.7877 15.8785 23.7877 15.8785 23.7877 15.8785C23.7877 15.8785 23.7877 15.8785 23.7877 15.8785C23.7877 15.8785 23.7876 15.8785 23.7876 15.8785C23.7876 15.8785 23.7876 15.8785 23.7876 15.8785C23.7876 15.8785 23.7876 15.8785 23.7876 15.8785C23.7876 15.8785 23.7876 15.8785 23.7876 15.8785C23.7876 15.8785 23.7876 15.8785 23.7876 15.8785C23.7876 15.8785 23.7876 15.8785 23.7876 15.8785C23.7876 15.8785 23.7876 15.8785 23.7876 15.8785C23.7876 15.8785 23.7876 15.8785 23.7876 15.8785C23.7876 15.8785 23.7876 15.8785 23.7876 15.8785C23.7876 15.8785 23.7876 15.8785 23.7876 15.8785C23.7876 15.8785 23.7876 15.8785 23.7876 15.8785C23.7876 15.8785 23.7876 15.8785 23.7876 15.8785C23.7876 15.8785 23.7876 15.8785 23.7876 15.8785C23.7876 15.8785 23.7876 15.8785 23.7876 15.8785C23.7876 15.8785 23.7876 15.8785 23.7876 15.8785C23.7876 15.8785 23.7876 15.8785 23.7876 15.8785C23.7876 15.8785 23.7876 15.8785 23.7876 15.8785C23.7876 15.8785 23.7876 15.8785 23.7876 15.8785C23.7876 15.8785 23.7876 15.8785 23.7876 15.8785C23.7876 15.8785 23.7876 15.8785 23.7876 15.8785C23.7876 15.8785 23.7876 15.8785 23.7876 15.8785C23.7876 15.8785 23.7876 15.8785 23.7876 15.8785C23.7876 15.8785 23.7876 15.8785 23.7876 15.8785C23.7876 15.8785 23.7876 15.8785 23.7876 15.8785C23.7876 15.8785 23.7876 15.8785 23.7876 15.8785C23.7876 15.8785 23.7876 15.8785 23.7876 15.8785C23.7876 15.8785 23.7876 15.8785 23.7876 15.8785C23.7876 15.8785 23.7876 15.8785 23.7876 15.8785C23.7876 15.8785 23.7876 15.8785 23.7876 15.8785C23.7876 15.8785 23.7876 15.8785 23.7876 15.8785C23.7876 15.8785 23.7876 15.8785 23.7876 15.8785C23.7876 15.8785 23.7876 15.8785 23.7876 15.8785C23.7876 15.8785 23.7876 15.8785 23.7876 15.8785C23.7876 15.8785 23.7876 15.8785 23.7876 15.8785C23.7876 15.8785 23.7876 15.8785 23.7876 15.8785C23.7876 15.8785 23.7876 15.8785 23.7876 15.8785C23.7876 15.8785 23.7876 15.8785 23.7876 15.8785C23.7876 15.8785 23.7876 15.8785 23.7876 15.8785C23.7876 15.8785 23.7876 15.8785 23.7876 15.8785C23.7876 15.8785 23.7875 15.8785 23.7875 15.8785C23.7875 15.8785 23.7875 15.8785 23.7875 15.8785C23.7875 15.8785 23.7875 15.8785 23.7875 15.8785C23.7875 15.8785 23.7875 15.8785 23.7875 15.8785C23.7875 15.8785 23.7875 15.8785 23.7875 15.8785C23.7875 15.8785 23.7875 15.8785 23.7875 15.8785C23.7875 15.8785 23.7875 15.8785 23.7875 15.8785C23.7875 15.8785 23.7875 15.8785 23.7875 15.8785C23.7875 15.8785 23.7875 15.8785 23.7875 15.8785C23.7875 15.8785 23.7875 15.8785 23.7875 15.8785C23.7875 15.8785 23.7875 15.8785 23.7875 15.8785C23.7875 15.8785 23.7875 15.8785 23.7875 15.8785C23.7875 15.8785 23.7875 15.8785 23.7875 15.8785C23.7875 15.8785 23.7875 15.8785 23.7875 15.8785C23.7875 15.8785 23.7875 15.8785 23.7875 15.8785C23.7875 15.8785 23.7875 15.8785 23.7875 15.8785C23.7875 15.8785 23.7875 15.8785 23.7875 15.8785C23.7875 15.8785 23.7875 15.8785 23.7875 15.8785C23.7875 15.8785 23.7875 15.8785 23.7875 15.8785C23.7875 15.8785 23.7875 15.8785 23.7875 15.8785C23.7875 15.8785 23.7875 15.8785 23.7875 15.8785C23.7875 15.8785 23.7875 15.8785 23.7875 15.8785C23.7875 15.8785 23.7875 15.8785 23.7875 15.8785C23.7875 15.8785 23.7875 15.8785 23.7875 15.8785C23.7875 15.8785 23.7875 15.8785 23.7875 15.8785C23.7875 15.8785 23.7875 15.8785 23.7875 15.8785C23.7875 15.8785 23.7875 15.8785 23.7875 15.8785C23.7875 15.8785 23.7875 15.8785 23.7875 15.8785C23.7875 15.8785 23.7875 15.8785 23.7875 15.8785C23.7875 15.8785 23.7875 15.8785 23.7875 15.8785C23.7875 15.8785 23.7875 15.8785 23.7875 15.8785C23.7875 15.8785 23.7875 15.8785 23.7875 15.8785C23.7875 15.8785 23.7875 15.8785 23.7875 15.8785C23.7875 15.8785 23.7875 15.8785 23.7875 15.8785C23.7875 15.8785 23.7875 15.8785 23.7875 15.8785C23.7875 15.8785 23.7875 15.8785 23.7875 15.8785C23.7875 15.8785 23.7875 15.8785 23.7875 15.8785C23.7875 15.8785 23.7875 15.8785 23.7875 15.8785C23.7875 15.8785 23.7875 15.8785 23.7875 15.8785C23.7875 15.8785 23.7875 15.8785 23.7874 15.8785C23.7874 15.8785 23.7874 15.8785 23.7874 15.8785C23.7874 15.8785 23.7874 15.8785 23.7874 15.8785C23.7874 15.8785 23.7874 15.8785 23.7874 15.8785C23.7874 15.8785 23.7874 15.8785 23.7874 15.8785C23.7874 15.8785 23.7874 15.8785 23.7874 15.8785C23.7874 15.8785 23.7874 15.8785 23.7874 15.8785C23.7874 15.8785 23.7874 15.8785 23.7874 15.8785C23.7874 15.8785 23.7874 15.8785 23.7874 15.8785C23.7874 15.8785 23.7874 15.8785 23.7874 15.8785C23.7874 15.8785 23.7874 15.8785 23.7874 15.8785C23.7874 15.8785 23.7874 15.8785 23.7874 15.8785C23.7874 15.8785 23.7874 15.8785 23.7874 15.8785C23.7874 15.8785 23.7874 15.8785 23.7874 15.8785C23.7874 15.8785 23.7874 15.8785 23.7874 15.8785C23.7874 15.8785 23.7874 15.8785 23.7874 15.8785C23.7874 15.8785 23.7874 15.8785 23.7874 15.8785C23.7874 15.8785 23.7874 15.8785 23.7874 15.8785C23.7874 15.8785 23.7874 15.8785 23.7874 15.8785C23.7874 15.8785 23.7874 15.8785 23.7874 15.8785C23.7874 15.8785 23.7874 15.8785 23.7874 15.8785C23.7874 15.8785 23.7874 15.8785 23.7874 15.8785C23.7874 15.8785 23.7874 15.8785 23.7874 15.8785C23.7874 15.8785 23.7874 15.8785 23.7874 15.8785C23.7874 15.8785 23.7874 15.8785 23.7874 15.8785C23.7874 15.8785 23.7874 15.8785 23.7874 15.8785C23.7874 15.8785 23.7874 15.8785 23.7874 15.8785C23.7874 15.8785 23.7874 15.8785 23.7874 15.8785C23.7874 15.8785 23.7874 15.8785 23.7874 15.8785C23.7874 15.8785 23.7874 15.8785 23.7874 15.8785C23.7874 15.8785 23.7874 15.8785 23.7874 15.8785C23.7874 15.8785 23.7874 15.8785 23.7874 15.8785C23.7874 15.8785 23.7874 15.8785 23.7874 15.8785C23.7874 15.8785 23.7874 15.8785 23.7874 15.8785C23.7874 15.8785 23.7874 15.8785 23.7874 15.8785C23.7874 15.8785 23.7874 15.8785 23.7874 15.8785C23.7874 15.8785 23.7874 15.8785 23.7874 15.8785C23.7874 15.8785 23.7874 15.8785 23.7874 15.8785C23.7874 15.8785 23.7874 15.8785 23.7874 15.8785C23.7874 15.8785 23.7874 15.8785 23.7874 15.8785C23.7874 15.8785 23.7874 15.8785 23.7874 15.8785C23.7873 15.8785 23.7873 15.8785 23.7873 15.8785C23.7873 15.8785 23.7873 15.8785 23.7873 15.8785C23.7873 15.8785 23.7873 15.8785 23.7873 15.8785C23.7873 15.8785 23.7873 15.8785 23.7873 15.8785C23.7873 15.8785 23.7873 15.8785 23.7873 15.8785C23.7873 15.8785 23.7873 15.8785 23.7873 15.8785C23.7873 15.8785 23.7873 15.8785 23.7873 15.8785C23.7873 15.8785 23.7873 15.8785 23.7873 15.8785C23.7873 15.8785 23.7873 15.8785 23.7873 15.8785C23.7873 15.8785 23.7873 15.8785 23.7873 15.8785C23.7873 15.8785 23.7873 15.8785 23.7873 15.8785C23.7873 15.8785 23.7873 15.8785 23.7873 15.8785C23.7873 15.8785 23.7873 15.8785 23.7873 15.8785C23.7873 15.8785 23.7873 15.8785 23.7873 15.8785C23.7873 15.8785 23.7873 15.8785 23.7873 15.8785C23.7873 15.8785 23.7873 15.8785 23.7873 15.8785C23.7873 15.8785 23.7873 15.8785 23.7873 15.8785C23.7873 15.8785 23.7873 15.8785 23.7873 15.8785C23.7873 15.8785 23.7873 15.8785 23.7873 15.8785C23.7873 15.8785 23.7873 15.8785 23.7873 15.8785C23.7873 15.8785 23.7873 15.8785 23.7873 15.8785C23.7873 15.8785 23.7873 15.8785 23.7873 15.8785C23.7873 15.8785 23.7873 15.8785 23.7873 15.8785C23.7873 15.8785 23.7873 15.8785 23.7873 15.8785C23.7873 15.8785 23.7873 15.8785 23.7873 15.8785C23.7873 15.8785 23.7873 15.8785 23.7873 15.8785C23.7873 15.8785 23.7873 15.8785 23.7873 15.8785C23.7873 15.8785 23.7873 15.8785 23.7873 15.8785C23.7873 15.8785 23.7873 15.8785 23.7873 15.8785C23.7873 15.8785 23.7873 15.8785 23.7873 15.8785C23.7873 15.8785 23.7873 15.8785 23.7873 15.8785C23.7873 15.8785 23.7873 15.8785 23.7873 15.8785C23.7873 15.8785 23.7873 15.8785 23.7873 15.8785C23.7873 15.8785 23.7873 15.8785 23.7873 15.8785C23.7873 15.8785 23.7873 15.8785 23.7873 15.8785C23.7873 15.8785 23.7873 15.8785 23.7873 15.8785C23.7873 15.8785 23.7873 15.8785 23.7873 15.8785C23.7873 15.8785 23.7873 15.8785 23.7873 15.8785C23.7873 15.8785 23.7873 15.8785 23.7873 15.8785C23.7873 15.8785 23.7873 15.8785 23.7873 15.8785C23.7873 15.8785 23.7873 15.8785 23.7873 15.8785C23.7873 15.8785 23.7872 15.8785 23.7872 15.8785C23.7872 15.8785 23.7872 15.8785 23.7872 15.8785C23.7872 15.8785 23.7872 15.8785 23.7872 15.8785C23.7872 15.8785 23.7872 15.8785 23.7872 15.8785C23.7872 15.8785 23.7872 15.8785 23.7872 15.8785C23.7872 15.8785 23.7872 15.8785 23.7872 15.8785C23.7872 15.8785 23.7872 15.8785 23.7872 15.8785C23.7872 15.8785 23.7872 15.8785 23.7872 15.8785C23.7872 15.8785 23.7872 15.8785 23.7872 15.8785C23.7872 15.8785 23.7872 15.8785 23.7872 15.8785C23.7872 15.8785 23.7872 15.8785 23.7872 15.8785C23.7872 15.8785 23.7872 15.8785 23.7872 15.8785C23.7872 15.8785 23.7872 15.8785 23.7872 15.8785C23.7872 15.8785 23.7872 15.8785 23.7872 15.8785C23.7872 15.8785 23.7872 15.8785 23.7872 15.8785C23.7872 15.8785 23.7872 15.8785 23.7872 15.8785C23.7872 15.8785 23.7872 15.8785 23.7872 15.8785C23.7872 15.8785 23.7872 15.8785 23.7872 15.8785C23.7872 15.8785 23.7872 15.8785 23.7872 15.8785C23.7872 15.8785 23.7872 15.8785 23.7872 15.8785C23.7872 15.8785 23.7872 15.8785 23.7872 15.8785C23.7872 15.8785 23.7872 15.8785 23.7872 15.8785C23.7872 15.8785 23.7872 15.8785 23.7872 15.8785C23.7872 15.8785 23.7872 15.8785 23.7872 15.8785C23.7872 15.8785 23.7872 15.8785 23.7872 15.8785C23.7872 15.8785 23.7872 15.8785 23.7872 15.8785C23.7872 15.8785 23.7872 15.8785 23.7872 15.8785C23.7872 15.8785 23.7872 15.8785 23.7872 15.8785C23.7872 15.8785 23.7872 15.8785 23.7872 15.8785C23.7872 15.8785 23.7872 15.8785 23.7872 15.8785C23.7872 15.8785 23.7872 15.8785 23.7872 15.8785C23.7872 15.8785 23.7872 15.8785 23.7872 15.8785C23.7872 15.8785 23.7872 15.8785 23.7872 15.8785C23.7872 15.8785 23.7872 15.8785 23.7872 15.8785C23.7872 15.8785 23.7872 15.8785 23.7872 15.8785C23.7872 15.8785 23.7872 15.8785 23.7872 15.8785C23.7872 15.8785 23.7872 15.8785 23.7872 15.8785C23.7872 15.8785 23.7872 15.8785 23.7872 15.8785C23.7872 15.8785 23.7872 15.8785 23.7872 15.8785C23.7872 15.8785 23.7872 15.8785 23.7872 15.8785C23.7872 15.8785 23.7872 15.8785 23.7872 15.8785C23.7872 15.8785 23.7872 15.8785 23.7872 15.8785C23.7872 15.8785 23.7872 15.8785 23.7872 15.8785C23.7871 15.8785 23.7871 15.8785 23.7871 15.8785C23.7871 15.8785 23.7871 15.8785 23.7871 15.8785C23.7871 15.8785 23.7871 15.8785 23.7871 15.8785C23.7871 15.8785 23.7871 15.8785 23.7871 15.8785C23.7871 15.8785 23.7871 15.8785 23.7871 15.8785C23.7871 15.8785 23.7871 15.8785 23.7871 15.8785C23.7871 15.8785 23.7871 15.8785 23.7871 15.8785C23.7871 15.8785 23.7871 15.8785 23.7871 15.8785C23.7871 15.8785 23.7871 15.8785 23.7871 15.8785C23.7871 15.8785 23.7871 15.8785 23.7871 15.8785C23.7871 15.8785 23.7871 15.8785 23.7871 15.8785C23.7871 15.8785 23.7871 15.8785 23.7871 15.8785C23.7871 15.8785 23.7871 15.8785 23.7871 15.8785C23.7871 15.8785 23.7871 15.8785 23.7871 15.8785C23.7871 15.8785 23.7871 15.8785 23.7871 15.8785C23.7871 15.8785 23.7871 15.8785 23.7871 15.8785C23.7871 15.8785 23.7871 15.8785 23.7871 15.8785C23.7871 15.8785 23.7871 15.8785 23.7871 15.8785C23.7871 15.8785 23.7871 15.8785 23.7871 15.8785C23.7871 15.8785 23.7871 15.8785 23.7871 15.8785C23.7871 15.8785 23.7871 15.8785 23.7871 15.8785C23.7871 15.8785 23.7871 15.8785 23.7871 15.8785C23.7871 15.8785 23.7871 15.8785 23.7871 15.8785C23.7871 15.8785 23.7871 15.8785 23.7871 15.8785C23.7871 15.8785 23.7871 15.8785 23.7871 15.8785C23.7871 15.8785 23.7871 15.8785 23.7871 15.8785C23.7871 15.8785 23.7871 15.8785 23.7871 15.8785C23.7871 15.8785 23.7871 15.8785 23.7871 15.8785C23.7871 15.8785 23.7871 15.8785 23.7871 15.8785C23.7871 15.8785 23.7871 15.8785 23.7871 15.8785C23.7871 15.8785 23.7871 15.8785 23.7871 15.8785C23.7871 15.8785 23.7871 15.8785 23.7871 15.8785C23.7871 15.8785 23.7871 15.8785 23.7871 15.8785C23.7871 15.8785 23.7871 15.8785 23.7871 15.8785C23.7871 15.8785 23.7871 15.8785 23.7871 15.8785C23.7871 15.8785 23.7871 15.8785 23.7871 15.8785C23.7871 15.8785 23.7871 15.8785 23.7871 15.8785C23.7871 15.8785 23.7871 15.8785 23.7871 15.8785C23.7871 15.8785 23.7871 15.8785 23.7871 15.8785C23.7871 15.8785 23.7871 15.8785 23.7871 15.8785C23.7871 15.8785 23.7871 15.8785 23.7871 15.8785C23.7871 15.8785 23.7871 15.8785 23.7871 15.8785C23.7871 15.8785 23.7871 15.8785 23.7871 15.8785C23.7871 15.8785 23.7871 15.8785 23.7871 15.8785C23.787 15.8785 23.787 15.8785 23.787 15.8785C23.787 15.8785 23.787 15.8785 23.787 15.8785C23.787 15.8785 23.787 15.8785 23.787 15.8785C23.787 15.8785 23.787 15.8785 23.787 15.8785C23.787 15.8785 23.787 15.8785 23.787 15.8785C23.787 15.8785 23.787 15.8785 23.787 15.8785C23.787 15.8785 23.787 15.8785 23.787 15.8785C23.787 15.8785 23.787 15.8785 23.787 15.8785C23.787 15.8785 23.787 15.8785 23.787 15.8785C23.787 15.8785 23.787 15.8785 23.787 15.8785C23.787 15.8785 23.787 15.8785 23.787 15.8785C23.787 15.8785 23.787 15.8785 23.787 15.8785C23.787 15.8785 23.787 15.8785 23.787 15.8785C23.787 15.8785 23.787 15.8785 23.787 15.8785C23.787 15.8785 23.787 15.8785 23.787 15.8785C23.787 15.8785 23.787 15.8785 23.787 15.8785C23.787 15.8785 23.787 15.8785 23.787 15.8785C23.787 15.8785 23.787 15.8785 23.787 15.8785C23.787 15.8785 23.787 15.8785 23.787 15.8785C23.787 15.8785 23.787 15.8785 23.787 15.8785C23.787 15.8785 23.787 15.8785 23.787 15.8785C23.787 15.8785 23.787 15.8785 23.787 15.8785C23.787 15.8785 23.787 15.8785 23.787 15.8785C23.787 15.8785 23.787 15.8785 23.787 15.8785C23.787 15.8785 23.787 15.8785 23.787 15.8785C23.787 15.8785 23.787 15.8785 23.787 15.8785C23.787 15.8785 23.787 15.8785 23.787 15.8785C23.787 15.8785 23.787 15.8785 23.787 15.8785C23.787 15.8785 23.787 15.8785 23.787 15.8785C23.787 15.8785 23.787 15.8785 23.787 15.8785C23.787 15.8785 23.787 15.8785 23.787 15.8785C23.787 15.8785 23.787 15.8785 23.787 15.8785C23.787 15.8785 23.787 15.8785 23.787 15.8785C23.787 15.8785 23.787 15.8785 23.787 15.8785C23.787 15.8785 23.787 15.8785 23.787 15.8785C23.787 15.8785 23.787 15.8785 23.787 15.8785C23.787 15.8785 23.787 15.8785 23.787 15.8785C23.787 15.8785 23.787 15.8785 23.787 15.8785C23.787 15.8785 23.787 15.8785 23.787 15.8785C23.787 15.8785 23.787 15.8785 23.787 15.8785C23.787 15.8785 23.787 15.8785 23.787 15.8785C23.787 15.8785 23.787 15.8785 23.787 15.8785C23.787 15.8785 23.787 15.8785 23.787 15.8785C23.787 15.8785 23.787 15.8785 23.787 15.8785C23.787 15.8785 23.787 15.8785 23.787 15.8785C23.787 15.8785 23.787 15.8785 23.787 15.8785C23.7869 15.8785 23.7869 15.8785 23.7869 15.8785C23.7869 15.8785 23.7869 15.8785 23.7869 15.8785C23.7869 15.8785 23.7869 15.8785 23.7869 15.8785C23.7869 15.8785 23.7869 15.8785 23.7869 15.8785C23.7869 15.8785 23.7869 15.8785 23.7869 15.8785C23.7869 15.8785 23.7869 15.8785 23.7869 15.8785C23.7869 15.8785 23.7869 15.8785 23.7869 15.8785C23.7869 15.8785 23.7869 15.8785 23.7869 15.8785C23.7869 15.8785 23.7869 15.8785 23.7869 15.8785C23.7869 15.8785 23.7869 15.8785 23.7869 15.8785C23.7869 15.8785 23.7869 15.8785 23.7869 15.8785C23.7869 15.8785 23.7869 15.8785 23.7869 15.8785C23.7869 15.8785 23.7869 15.8785 23.7869 15.8785C23.7869 15.8785 23.7869 15.8785 23.7869 15.8785C23.7869 15.8785 23.7869 15.8785 23.7869 15.8785C23.7869 15.8785 23.7869 15.8785 23.7869 15.8785C23.7869 15.8785 23.7869 15.8785 23.7869 15.8785C23.7869 15.8785 23.7869 15.8785 23.7869 15.8785C23.7869 15.8785 23.7869 15.8785 23.7869 15.8785C23.7869 15.8785 23.7869 15.8785 23.7869 15.8785C23.7869 15.8785 23.7869 15.8785 23.7869 15.8785C23.7869 15.8785 23.7869 15.8785 23.7869 15.8785C23.7869 15.8785 23.7869 15.8785 23.7869 15.8785C23.7869 15.8785 23.7869 15.8785 23.7869 15.8785C23.7869 15.8785 23.7869 15.8785 23.7869 15.8785C23.7869 15.8785 23.7869 15.8785 23.7869 15.8785C23.7869 15.8785 23.7869 15.8785 23.7869 15.8785C23.7869 15.8785 23.7869 15.8785 23.7869 15.8785C23.7869 15.8785 23.7869 15.8785 23.7869 15.8785C23.7869 15.8785 23.7869 15.8785 23.7869 15.8785C23.7869 15.8785 23.7869 15.8785 23.7869 15.8785C23.7869 15.8785 23.7869 15.8785 23.7869 15.8785C23.7869 15.8785 23.7869 15.8785 23.7869 15.8785C23.7869 15.8785 23.7869 15.8785 23.7869 15.8785C23.7869 15.8785 23.7869 15.8785 23.7869 15.8785C23.7869 15.8785 23.7869 15.8785 23.7869 15.8785C23.7869 15.8785 23.7869 15.8785 23.7869 15.8785C23.7869 15.8785 23.7869 15.8785 23.7869 15.8785C23.7869 15.8785 23.7869 15.8785 23.7869 15.8785C23.7869 15.8785 23.7869 15.8785 23.7869 15.8785C23.7869 15.8785 23.7869 15.8785 23.7869 15.8785C23.7869 15.8785 23.7869 15.8785 23.7869 15.8785C23.7869 15.8785 23.7869 15.8785 23.7869 15.8785C23.7869 15.8785 23.7869 15.8785 23.7869 15.8785C23.7869 15.8785 23.7869 15.8785 23.7869 15.8785C23.7869 15.8785 23.7869 15.8785 23.7869 15.8785C23.7869 15.8785 23.7869 15.8785 23.7869 15.8785C23.7869 15.8785 23.7869 15.8785 23.7869 15.8785V19.8785C23.7869 19.8785 23.7869 19.8785 23.7869 19.8785C23.7869 19.8785 23.7869 19.8785 23.7869 19.8785C23.7869 19.8785 23.7869 19.8785 23.7869 19.8785C23.7869 19.8785 23.7869 19.8785 23.7869 19.8785C23.7869 19.8785 23.7869 19.8785 23.7869 19.8785C23.7869 19.8785 23.7869 19.8785 23.7869 19.8785C23.7869 19.8785 23.7869 19.8785 23.7869 19.8785C23.7869 19.8785 23.7869 19.8785 23.7869 19.8785C23.7869 19.8785 23.7869 19.8785 23.7869 19.8785C23.7869 19.8785 23.7869 19.8785 23.7869 19.8785C23.7869 19.8785 23.7869 19.8785 23.7869 19.8785C23.7869 19.8785 23.7869 19.8785 23.7869 19.8785C23.7869 19.8785 23.7869 19.8785 23.7869 19.8785C23.7869 19.8785 23.7869 19.8785 23.7869 19.8785C23.7869 19.8785 23.7869 19.8785 23.7869 19.8785C23.7869 19.8785 23.7869 19.8785 23.7869 19.8785C23.7869 19.8785 23.7869 19.8785 23.7869 19.8785C23.7869 19.8785 23.7869 19.8785 23.7869 19.8785C23.7869 19.8785 23.7869 19.8785 23.7869 19.8785C23.7869 19.8785 23.7869 19.8785 23.7869 19.8785C23.7869 19.8785 23.7869 19.8785 23.7869 19.8785C23.7869 19.8785 23.7869 19.8785 23.7869 19.8785C23.7869 19.8785 23.7869 19.8785 23.7869 19.8785C23.7869 19.8785 23.7869 19.8785 23.7869 19.8785C23.7869 19.8785 23.7869 19.8785 23.7869 19.8785C23.7869 19.8785 23.7869 19.8785 23.7869 19.8785C23.7869 19.8785 23.7869 19.8785 23.7869 19.8785C23.7869 19.8785 23.7869 19.8785 23.7869 19.8785C23.7869 19.8785 23.7869 19.8785 23.7869 19.8785C23.7869 19.8785 23.7869 19.8785 23.7869 19.8785C23.7869 19.8785 23.7869 19.8785 23.7869 19.8785C23.7869 19.8785 23.7869 19.8785 23.7869 19.8785C23.7869 19.8785 23.7869 19.8785 23.7869 19.8785C23.7869 19.8785 23.7869 19.8785 23.7869 19.8785C23.7869 19.8785 23.7869 19.8785 23.7869 19.8785C23.7869 19.8785 23.7869 19.8785 23.7869 19.8785C23.7869 19.8785 23.7869 19.8785 23.7869 19.8785C23.7869 19.8785 23.7869 19.8785 23.7869 19.8785C23.7869 19.8785 23.7869 19.8785 23.7869 19.8785C23.7869 19.8785 23.7869 19.8785 23.7869 19.8785C23.7869 19.8785 23.7869 19.8785 23.7869 19.8785C23.7869 19.8785 23.7869 19.8785 23.7869 19.8785C23.7869 19.8785 23.7869 19.8785 23.7869 19.8785C23.7869 19.8785 23.7869 19.8785 23.7869 19.8785C23.7869 19.8785 23.7869 19.8785 23.7869 19.8785C23.7869 19.8785 23.7869 19.8785 23.7869 19.8785C23.7869 19.8785 23.7869 19.8785 23.7869 19.8785C23.7869 19.8785 23.7869 19.8785 23.787 19.8785C23.787 19.8785 23.787 19.8785 23.787 19.8785C23.787 19.8785 23.787 19.8785 23.787 19.8785C23.787 19.8785 23.787 19.8785 23.787 19.8785C23.787 19.8785 23.787 19.8785 23.787 19.8785C23.787 19.8785 23.787 19.8785 23.787 19.8785C23.787 19.8785 23.787 19.8785 23.787 19.8785C23.787 19.8785 23.787 19.8785 23.787 19.8785C23.787 19.8785 23.787 19.8785 23.787 19.8785C23.787 19.8785 23.787 19.8785 23.787 19.8785C23.787 19.8785 23.787 19.8785 23.787 19.8785C23.787 19.8785 23.787 19.8785 23.787 19.8785C23.787 19.8785 23.787 19.8785 23.787 19.8785C23.787 19.8785 23.787 19.8785 23.787 19.8785C23.787 19.8785 23.787 19.8785 23.787 19.8785C23.787 19.8785 23.787 19.8785 23.787 19.8785C23.787 19.8785 23.787 19.8785 23.787 19.8785C23.787 19.8785 23.787 19.8785 23.787 19.8785C23.787 19.8785 23.787 19.8785 23.787 19.8785C23.787 19.8785 23.787 19.8785 23.787 19.8785C23.787 19.8785 23.787 19.8785 23.787 19.8785C23.787 19.8785 23.787 19.8785 23.787 19.8785C23.787 19.8785 23.787 19.8785 23.787 19.8785C23.787 19.8785 23.787 19.8785 23.787 19.8785C23.787 19.8785 23.787 19.8785 23.787 19.8785C23.787 19.8785 23.787 19.8785 23.787 19.8785C23.787 19.8785 23.787 19.8785 23.787 19.8785C23.787 19.8785 23.787 19.8785 23.787 19.8785C23.787 19.8785 23.787 19.8785 23.787 19.8785C23.787 19.8785 23.787 19.8785 23.787 19.8785C23.787 19.8785 23.787 19.8785 23.787 19.8785C23.787 19.8785 23.787 19.8785 23.787 19.8785C23.787 19.8785 23.787 19.8785 23.787 19.8785C23.787 19.8785 23.787 19.8785 23.787 19.8785C23.787 19.8785 23.787 19.8785 23.787 19.8785C23.787 19.8785 23.787 19.8785 23.787 19.8785C23.787 19.8785 23.787 19.8785 23.787 19.8785C23.787 19.8785 23.787 19.8785 23.787 19.8785C23.787 19.8785 23.787 19.8785 23.787 19.8785C23.787 19.8785 23.787 19.8785 23.787 19.8785C23.787 19.8785 23.787 19.8785 23.787 19.8785C23.787 19.8785 23.787 19.8785 23.787 19.8785C23.787 19.8785 23.787 19.8785 23.787 19.8785C23.787 19.8785 23.787 19.8785 23.787 19.8785C23.787 19.8785 23.787 19.8785 23.787 19.8785C23.787 19.8785 23.787 19.8785 23.787 19.8785C23.787 19.8785 23.787 19.8785 23.7871 19.8785C23.7871 19.8785 23.7871 19.8785 23.7871 19.8785C23.7871 19.8785 23.7871 19.8785 23.7871 19.8785C23.7871 19.8785 23.7871 19.8785 23.7871 19.8785C23.7871 19.8785 23.7871 19.8785 23.7871 19.8785C23.7871 19.8785 23.7871 19.8785 23.7871 19.8785C23.7871 19.8785 23.7871 19.8785 23.7871 19.8785C23.7871 19.8785 23.7871 19.8785 23.7871 19.8785C23.7871 19.8785 23.7871 19.8785 23.7871 19.8785C23.7871 19.8785 23.7871 19.8785 23.7871 19.8785C23.7871 19.8785 23.7871 19.8785 23.7871 19.8785C23.7871 19.8785 23.7871 19.8785 23.7871 19.8785C23.7871 19.8785 23.7871 19.8785 23.7871 19.8785C23.7871 19.8785 23.7871 19.8785 23.7871 19.8785C23.7871 19.8785 23.7871 19.8785 23.7871 19.8785C23.7871 19.8785 23.7871 19.8785 23.7871 19.8785C23.7871 19.8785 23.7871 19.8785 23.7871 19.8785C23.7871 19.8785 23.7871 19.8785 23.7871 19.8785C23.7871 19.8785 23.7871 19.8785 23.7871 19.8785C23.7871 19.8785 23.7871 19.8785 23.7871 19.8785C23.7871 19.8785 23.7871 19.8785 23.7871 19.8785C23.7871 19.8785 23.7871 19.8785 23.7871 19.8785C23.7871 19.8785 23.7871 19.8785 23.7871 19.8785C23.7871 19.8785 23.7871 19.8785 23.7871 19.8785C23.7871 19.8785 23.7871 19.8785 23.7871 19.8785C23.7871 19.8785 23.7871 19.8785 23.7871 19.8785C23.7871 19.8785 23.7871 19.8785 23.7871 19.8785C23.7871 19.8785 23.7871 19.8785 23.7871 19.8785C23.7871 19.8785 23.7871 19.8785 23.7871 19.8785C23.7871 19.8785 23.7871 19.8785 23.7871 19.8785C23.7871 19.8785 23.7871 19.8785 23.7871 19.8785C23.7871 19.8785 23.7871 19.8785 23.7871 19.8785C23.7871 19.8785 23.7871 19.8785 23.7871 19.8785C23.7871 19.8785 23.7871 19.8785 23.7871 19.8785C23.7871 19.8785 23.7871 19.8785 23.7871 19.8785C23.7871 19.8785 23.7871 19.8785 23.7871 19.8785C23.7871 19.8785 23.7871 19.8785 23.7871 19.8785C23.7871 19.8785 23.7871 19.8785 23.7871 19.8785C23.7871 19.8785 23.7871 19.8785 23.7871 19.8785C23.7871 19.8785 23.7871 19.8785 23.7871 19.8785C23.7871 19.8785 23.7871 19.8785 23.7871 19.8785C23.7871 19.8785 23.7871 19.8785 23.7871 19.8785C23.7871 19.8785 23.7871 19.8785 23.7871 19.8785C23.7871 19.8785 23.7871 19.8785 23.7871 19.8785C23.7871 19.8785 23.7871 19.8785 23.7872 19.8785C23.7872 19.8785 23.7872 19.8785 23.7872 19.8785C23.7872 19.8785 23.7872 19.8785 23.7872 19.8785C23.7872 19.8785 23.7872 19.8785 23.7872 19.8785C23.7872 19.8785 23.7872 19.8785 23.7872 19.8785C23.7872 19.8785 23.7872 19.8785 23.7872 19.8785C23.7872 19.8785 23.7872 19.8785 23.7872 19.8785C23.7872 19.8785 23.7872 19.8785 23.7872 19.8785C23.7872 19.8785 23.7872 19.8785 23.7872 19.8785C23.7872 19.8785 23.7872 19.8785 23.7872 19.8785C23.7872 19.8785 23.7872 19.8785 23.7872 19.8785C23.7872 19.8785 23.7872 19.8785 23.7872 19.8785C23.7872 19.8785 23.7872 19.8785 23.7872 19.8785C23.7872 19.8785 23.7872 19.8785 23.7872 19.8785C23.7872 19.8785 23.7872 19.8785 23.7872 19.8785C23.7872 19.8785 23.7872 19.8785 23.7872 19.8785C23.7872 19.8785 23.7872 19.8785 23.7872 19.8785C23.7872 19.8785 23.7872 19.8785 23.7872 19.8785C23.7872 19.8785 23.7872 19.8785 23.7872 19.8785C23.7872 19.8785 23.7872 19.8785 23.7872 19.8785C23.7872 19.8785 23.7872 19.8785 23.7872 19.8785C23.7872 19.8785 23.7872 19.8785 23.7872 19.8785C23.7872 19.8785 23.7872 19.8785 23.7872 19.8785C23.7872 19.8785 23.7872 19.8785 23.7872 19.8785C23.7872 19.8785 23.7872 19.8785 23.7872 19.8785C23.7872 19.8785 23.7872 19.8785 23.7872 19.8785C23.7872 19.8785 23.7872 19.8785 23.7872 19.8785C23.7872 19.8785 23.7872 19.8785 23.7872 19.8785C23.7872 19.8785 23.7872 19.8785 23.7872 19.8785C23.7872 19.8785 23.7872 19.8785 23.7872 19.8785C23.7872 19.8785 23.7872 19.8785 23.7872 19.8785C23.7872 19.8785 23.7872 19.8785 23.7872 19.8785C23.7872 19.8785 23.7872 19.8785 23.7872 19.8785C23.7872 19.8785 23.7872 19.8785 23.7872 19.8785C23.7872 19.8785 23.7872 19.8785 23.7872 19.8785C23.7872 19.8785 23.7872 19.8785 23.7872 19.8785C23.7872 19.8785 23.7872 19.8785 23.7872 19.8785C23.7872 19.8785 23.7872 19.8785 23.7872 19.8785C23.7872 19.8785 23.7872 19.8785 23.7872 19.8785C23.7872 19.8785 23.7872 19.8785 23.7872 19.8785C23.7872 19.8785 23.7872 19.8785 23.7872 19.8785C23.7872 19.8785 23.7872 19.8785 23.7872 19.8785C23.7872 19.8785 23.7872 19.8785 23.7872 19.8785C23.7872 19.8785 23.7873 19.8785 23.7873 19.8785C23.7873 19.8785 23.7873 19.8785 23.7873 19.8785C23.7873 19.8785 23.7873 19.8785 23.7873 19.8785C23.7873 19.8785 23.7873 19.8785 23.7873 19.8785C23.7873 19.8785 23.7873 19.8785 23.7873 19.8785C23.7873 19.8785 23.7873 19.8785 23.7873 19.8785C23.7873 19.8785 23.7873 19.8785 23.7873 19.8785C23.7873 19.8785 23.7873 19.8785 23.7873 19.8785C23.7873 19.8785 23.7873 19.8785 23.7873 19.8785C23.7873 19.8785 23.7873 19.8785 23.7873 19.8785C23.7873 19.8785 23.7873 19.8785 23.7873 19.8785C23.7873 19.8785 23.7873 19.8785 23.7873 19.8785C23.7873 19.8785 23.7873 19.8785 23.7873 19.8785C23.7873 19.8785 23.7873 19.8785 23.7873 19.8785C23.7873 19.8785 23.7873 19.8785 23.7873 19.8785C23.7873 19.8785 23.7873 19.8785 23.7873 19.8785C23.7873 19.8785 23.7873 19.8785 23.7873 19.8785C23.7873 19.8785 23.7873 19.8785 23.7873 19.8785C23.7873 19.8785 23.7873 19.8785 23.7873 19.8785C23.7873 19.8785 23.7873 19.8785 23.7873 19.8785C23.7873 19.8785 23.7873 19.8785 23.7873 19.8785C23.7873 19.8785 23.7873 19.8785 23.7873 19.8785C23.7873 19.8785 23.7873 19.8785 23.7873 19.8785C23.7873 19.8785 23.7873 19.8785 23.7873 19.8785C23.7873 19.8785 23.7873 19.8785 23.7873 19.8785C23.7873 19.8785 23.7873 19.8785 23.7873 19.8785C23.7873 19.8785 23.7873 19.8785 23.7873 19.8785C23.7873 19.8785 23.7873 19.8785 23.7873 19.8785C23.7873 19.8785 23.7873 19.8785 23.7873 19.8785C23.7873 19.8785 23.7873 19.8785 23.7873 19.8785C23.7873 19.8785 23.7873 19.8785 23.7873 19.8785C23.7873 19.8785 23.7873 19.8785 23.7873 19.8785C23.7873 19.8785 23.7873 19.8785 23.7873 19.8785C23.7873 19.8785 23.7873 19.8785 23.7873 19.8785C23.7873 19.8785 23.7873 19.8785 23.7873 19.8785C23.7873 19.8785 23.7873 19.8785 23.7873 19.8785C23.7873 19.8785 23.7873 19.8785 23.7873 19.8785C23.7873 19.8785 23.7873 19.8785 23.7873 19.8785C23.7873 19.8785 23.7873 19.8785 23.7873 19.8785C23.7873 19.8785 23.7873 19.8785 23.7873 19.8785C23.7873 19.8785 23.7873 19.8785 23.7873 19.8785C23.7873 19.8785 23.7873 19.8785 23.7874 19.8785C23.7874 19.8785 23.7874 19.8785 23.7874 19.8785C23.7874 19.8785 23.7874 19.8785 23.7874 19.8785C23.7874 19.8785 23.7874 19.8785 23.7874 19.8785C23.7874 19.8785 23.7874 19.8785 23.7874 19.8785C23.7874 19.8785 23.7874 19.8785 23.7874 19.8785C23.7874 19.8785 23.7874 19.8785 23.7874 19.8785C23.7874 19.8785 23.7874 19.8785 23.7874 19.8785C23.7874 19.8785 23.7874 19.8785 23.7874 19.8785C23.7874 19.8785 23.7874 19.8785 23.7874 19.8785C23.7874 19.8785 23.7874 19.8785 23.7874 19.8785C23.7874 19.8785 23.7874 19.8785 23.7874 19.8785C23.7874 19.8785 23.7874 19.8785 23.7874 19.8785C23.7874 19.8785 23.7874 19.8785 23.7874 19.8785C23.7874 19.8785 23.7874 19.8785 23.7874 19.8785C23.7874 19.8785 23.7874 19.8785 23.7874 19.8785C23.7874 19.8785 23.7874 19.8785 23.7874 19.8785C23.7874 19.8785 23.7874 19.8785 23.7874 19.8785C23.7874 19.8785 23.7874 19.8785 23.7874 19.8785C23.7874 19.8785 23.7874 19.8785 23.7874 19.8785C23.7874 19.8785 23.7874 19.8785 23.7874 19.8785C23.7874 19.8785 23.7874 19.8785 23.7874 19.8785C23.7874 19.8785 23.7874 19.8785 23.7874 19.8785C23.7874 19.8785 23.7874 19.8785 23.7874 19.8785C23.7874 19.8785 23.7874 19.8785 23.7874 19.8785C23.7874 19.8785 23.7874 19.8785 23.7874 19.8785C23.7874 19.8785 23.7874 19.8785 23.7874 19.8785C23.7874 19.8785 23.7874 19.8785 23.7874 19.8785C23.7874 19.8785 23.7874 19.8785 23.7874 19.8785C23.7874 19.8785 23.7874 19.8785 23.7874 19.8785C23.7874 19.8785 23.7874 19.8785 23.7874 19.8785C23.7874 19.8785 23.7874 19.8785 23.7874 19.8785C23.7874 19.8785 23.7874 19.8785 23.7874 19.8785C23.7874 19.8785 23.7874 19.8785 23.7874 19.8785C23.7874 19.8785 23.7874 19.8785 23.7874 19.8785C23.7874 19.8785 23.7874 19.8785 23.7874 19.8785C23.7874 19.8785 23.7874 19.8785 23.7874 19.8785C23.7874 19.8785 23.7874 19.8785 23.7874 19.8785C23.7874 19.8785 23.7874 19.8785 23.7874 19.8785C23.7874 19.8785 23.7874 19.8785 23.7874 19.8785C23.7874 19.8785 23.7874 19.8785 23.7874 19.8785C23.7875 19.8785 23.7875 19.8785 23.7875 19.8785C23.7875 19.8785 23.7875 19.8785 23.7875 19.8785C23.7875 19.8785 23.7875 19.8785 23.7875 19.8785C23.7875 19.8785 23.7875 19.8785 23.7875 19.8785C23.7875 19.8785 23.7875 19.8785 23.7875 19.8785C23.7875 19.8785 23.7875 19.8785 23.7875 19.8785C23.7875 19.8785 23.7875 19.8785 23.7875 19.8785C23.7875 19.8785 23.7875 19.8785 23.7875 19.8785C23.7875 19.8785 23.7875 19.8785 23.7875 19.8785C23.7875 19.8785 23.7875 19.8785 23.7875 19.8785C23.7875 19.8785 23.7875 19.8785 23.7875 19.8785C23.7875 19.8785 23.7875 19.8785 23.7875 19.8785C23.7875 19.8785 23.7875 19.8785 23.7875 19.8785C23.7875 19.8785 23.7875 19.8785 23.7875 19.8785C23.7875 19.8785 23.7875 19.8785 23.7875 19.8785C23.7875 19.8785 23.7875 19.8785 23.7875 19.8785C23.7875 19.8785 23.7875 19.8785 23.7875 19.8785C23.7875 19.8785 23.7875 19.8785 23.7875 19.8785C23.7875 19.8785 23.7875 19.8785 23.7875 19.8785C23.7875 19.8785 23.7875 19.8785 23.7875 19.8785C23.7875 19.8785 23.7875 19.8785 23.7875 19.8785C23.7875 19.8785 23.7875 19.8785 23.7875 19.8785C23.7875 19.8785 23.7875 19.8785 23.7875 19.8785C23.7875 19.8785 23.7875 19.8785 23.7875 19.8785C23.7875 19.8785 23.7875 19.8785 23.7875 19.8785C23.7875 19.8785 23.7875 19.8785 23.7875 19.8785C23.7875 19.8785 23.7875 19.8785 23.7875 19.8785C23.7875 19.8785 23.7875 19.8785 23.7875 19.8785C23.7875 19.8785 23.7875 19.8785 23.7875 19.8785C23.7875 19.8785 23.7875 19.8785 23.7875 19.8785C23.7875 19.8785 23.7875 19.8785 23.7875 19.8785C23.7875 19.8785 23.7875 19.8785 23.7875 19.8785C23.7875 19.8785 23.7875 19.8785 23.7875 19.8785C23.7875 19.8785 23.7875 19.8785 23.7875 19.8785C23.7875 19.8785 23.7875 19.8785 23.7875 19.8785C23.7875 19.8785 23.7875 19.8785 23.7875 19.8785C23.7875 19.8785 23.7875 19.8785 23.7875 19.8785C23.7875 19.8785 23.7875 19.8785 23.7875 19.8785C23.7875 19.8785 23.7875 19.8785 23.7875 19.8785C23.7875 19.8785 23.7876 19.8785 23.7876 19.8785C23.7876 19.8785 23.7876 19.8785 23.7876 19.8785C23.7876 19.8785 23.7876 19.8785 23.7876 19.8785C23.7876 19.8785 23.7876 19.8785 23.7876 19.8785C23.7876 19.8785 23.7876 19.8785 23.7876 19.8785C23.7876 19.8785 23.7876 19.8785 23.7876 19.8785C23.7876 19.8785 23.7876 19.8785 23.7876 19.8785C23.7876 19.8785 23.7876 19.8785 23.7876 19.8785C23.7876 19.8785 23.7876 19.8785 23.7876 19.8785C23.7876 19.8785 23.7876 19.8785 23.7876 19.8785C23.7876 19.8785 23.7876 19.8785 23.7876 19.8785C23.7876 19.8785 23.7876 19.8785 23.7876 19.8785C23.7876 19.8785 23.7876 19.8785 23.7876 19.8785C23.7876 19.8785 23.7876 19.8785 23.7876 19.8785C23.7876 19.8785 23.7876 19.8785 23.7876 19.8785C23.7876 19.8785 23.7876 19.8785 23.7876 19.8785C23.7876 19.8785 23.7876 19.8785 23.7876 19.8785C23.7876 19.8785 23.7876 19.8785 23.7876 19.8785C23.7876 19.8785 23.7876 19.8785 23.7876 19.8785C23.7876 19.8785 23.7876 19.8785 23.7876 19.8785C23.7876 19.8785 23.7876 19.8785 23.7876 19.8785C23.7876 19.8785 23.7876 19.8785 23.7876 19.8785C23.7876 19.8785 23.7876 19.8785 23.7876 19.8785C23.7876 19.8785 23.7876 19.8785 23.7876 19.8785C23.7876 19.8785 23.7876 19.8785 23.7876 19.8785C23.7876 19.8785 23.7876 19.8785 23.7876 19.8785C23.7876 19.8785 23.7876 19.8785 23.7876 19.8785C23.7876 19.8785 23.7876 19.8785 23.7876 19.8785C23.7876 19.8785 23.7876 19.8785 23.7876 19.8785C23.7876 19.8785 23.7876 19.8785 23.7876 19.8785C23.7876 19.8785 23.7876 19.8785 23.7876 19.8785C23.7876 19.8785 23.7876 19.8785 23.7876 19.8785C23.7876 19.8785 23.7876 19.8785 23.7876 19.8785C23.7876 19.8785 23.7876 19.8785 23.7876 19.8785C23.7876 19.8785 23.7876 19.8785 23.7876 19.8785C23.7876 19.8785 23.7876 19.8785 23.7876 19.8785C23.7876 19.8785 23.7876 19.8785 23.7876 19.8785C23.7876 19.8785 23.7876 19.8785 23.7876 19.8785C23.7876 19.8785 23.7876 19.8785 23.7876 19.8785C23.7876 19.8785 23.7877 19.8785 23.7877 19.8785C23.7877 19.8785 23.7877 19.8785 23.7877 19.8785C23.7877 19.8785 23.7877 19.8785 23.7877 19.8785C23.7877 19.8785 23.7877 19.8785 23.7877 19.8785C23.7877 19.8785 23.7877 19.8785 23.7877 19.8785C23.7877 19.8785 23.7877 19.8785 23.7877 19.8785C23.7877 19.8785 23.7877 19.8785 23.7877 19.8785C23.7877 19.8785 23.7877 19.8785 23.7877 19.8785C23.7877 19.8785 23.7877 19.8785 23.7877 19.8785C23.7877 19.8785 23.7877 19.8785 23.7877 19.8785C23.7877 19.8785 23.7877 19.8785 23.7877 19.8785C23.7877 19.8785 23.7877 19.8785 23.7877 19.8785C23.7877 19.8785 23.7877 19.8785 23.7877 19.8785C23.7877 19.8785 23.7877 19.8785 23.7877 19.8785C23.7877 19.8785 23.7877 19.8785 23.7877 19.8785C23.7877 19.8785 23.7877 19.8785 23.7877 19.8785C23.7877 19.8785 23.7877 19.8785 23.7877 19.8785C23.7877 19.8785 23.7877 19.8785 23.7877 19.8785C23.7877 19.8785 23.7877 19.8785 23.7877 19.8785C23.7877 19.8785 23.7877 19.8785 23.7877 19.8785C23.7877 19.8785 23.7877 19.8785 23.7877 19.8785C23.7877 19.8785 23.7877 19.8785 23.7877 19.8785C23.7877 19.8785 23.7877 19.8785 23.7877 19.8785C23.7877 19.8785 23.7877 19.8785 23.7877 19.8785C23.7877 19.8785 23.7877 19.8785 23.7877 19.8785C23.7877 19.8785 23.7877 19.8785 23.7877 19.8785C23.7877 19.8785 23.7877 19.8785 23.7877 19.8785C23.7877 19.8785 23.7877 19.8785 23.7877 19.8785C23.7877 19.8785 23.7877 19.8785 23.7877 19.8785C23.7877 19.8785 23.7877 19.8785 23.7877 19.8785C23.7877 19.8785 23.7877 19.8785 23.7877 19.8785C23.7877 19.8785 23.7877 19.8785 23.7877 19.8785C23.7877 19.8785 23.7877 19.8785 23.7877 19.8785C23.7877 19.8785 23.7877 19.8785 23.7877 19.8785C23.7877 19.8785 23.7877 19.8785 23.7877 19.8785C23.7877 19.8785 23.7877 19.8785 23.7877 19.8785C23.7877 19.8785 23.7877 19.8785 23.7877 19.8785C23.7877 19.8785 23.7877 19.8785 23.7877 19.8785C23.7877 19.8785 23.7877 19.8785 23.7878 19.8785C23.7878 19.8785 23.7878 19.8785 23.7878 19.8785C23.7878 19.8785 23.7878 19.8785 23.7878 19.8785C23.7878 19.8785 23.7878 19.8785 23.7878 19.8785C23.7878 19.8785 23.7878 19.8785 23.7878 19.8785C23.7878 19.8785 23.7878 19.8785 23.7878 19.8785C23.7878 19.8785 23.7878 19.8785 23.7878 19.8785C23.7878 19.8785 23.7878 19.8785 23.7878 19.8785C23.7878 19.8785 23.7878 19.8785 23.7878 19.8785C23.7878 19.8785 23.7878 19.8785 23.7878 19.8785C23.7878 19.8785 23.7878 19.8785 23.7878 19.8785C23.7878 19.8785 23.7878 19.8785 23.7878 19.8785C23.7878 19.8785 23.7878 19.8785 23.7878 19.8785C23.7878 19.8785 23.7878 19.8785 23.7878 19.8785C23.7878 19.8785 23.7878 19.8785 23.7878 19.8785C23.7878 19.8785 23.7878 19.8785 23.7878 19.8785C23.7878 19.8785 23.7878 19.8785 23.7878 19.8785C23.7878 19.8785 23.7878 19.8785 23.7878 19.8785C23.7878 19.8785 23.7878 19.8785 23.7878 19.8785C23.7878 19.8785 23.7878 19.8785 23.7878 19.8785C23.7878 19.8785 23.7878 19.8785 23.7878 19.8785C23.7878 19.8785 23.7878 19.8785 23.7878 19.8785C23.7878 19.8785 23.7878 19.8785 23.7878 19.8785C23.7878 19.8785 23.7878 19.8785 23.7878 19.8785C23.7878 19.8785 23.7878 19.8785 23.7878 19.8785C23.7878 19.8785 23.7878 19.8785 23.7878 19.8785C23.7878 19.8785 23.7878 19.8785 23.7878 19.8785C23.7878 19.8785 23.7878 19.8785 23.7878 19.8785C23.7878 19.8785 23.7878 19.8785 23.7878 19.8785C23.7878 19.8785 23.7878 19.8785 23.7878 19.8785C23.7878 19.8785 23.7878 19.8785 23.7878 19.8785C23.7878 19.8785 23.7878 19.8785 23.7878 19.8785C23.7878 19.8785 23.7878 19.8785 23.7878 19.8785C23.7878 19.8785 23.7878 19.8785 23.7878 19.8785C23.7878 19.8785 23.7878 19.8785 23.7878 19.8785C23.7878 19.8785 23.7878 19.8785 23.7878 19.8785C23.7878 19.8785 23.7878 19.8785 23.7878 19.8785C23.7878 19.8785 23.7878 19.8785 23.7878 19.8785C23.7878 19.8785 23.7878 19.8785 23.7879 19.8785C23.7879 19.8785 23.7879 19.8785 23.7879 19.8785C23.7879 19.8785 23.7879 19.8785 23.7879 19.8785C23.7879 19.8785 23.7879 19.8785 23.7879 19.8785C23.7879 19.8785 23.7879 19.8785 23.7879 19.8785C23.7879 19.8785 23.7879 19.8785 23.7879 19.8785C23.7879 19.8785 23.7879 19.8785 23.7879 19.8785C23.7879 19.8785 23.7879 19.8785 23.7879 19.8785C23.7879 19.8785 23.7879 19.8785 23.7879 19.8785C23.7879 19.8785 23.7879 19.8785 23.7879 19.8785C23.7879 19.8785 23.7879 19.8785 23.7879 19.8785C23.7879 19.8785 23.7879 19.8785 23.7879 19.8785C23.7879 19.8785 23.7879 19.8785 23.7879 19.8785C23.7879 19.8785 23.7879 19.8785 23.7879 19.8785C23.7879 19.8785 23.7879 19.8785 23.7879 19.8785C23.7879 19.8785 23.7879 19.8785 23.7879 19.8785C23.7879 19.8785 23.7879 19.8785 23.7879 19.8785C23.7879 19.8785 23.7879 19.8785 23.7879 19.8785C23.7879 19.8785 23.7879 19.8785 23.7879 19.8785C23.7879 19.8785 23.7879 19.8785 23.7879 19.8785C23.7879 19.8785 23.7879 19.8785 23.7879 19.8785C23.7879 19.8785 23.7879 19.8785 23.7879 19.8785C23.7879 19.8785 23.7879 19.8785 23.7879 19.8785C23.7879 19.8785 23.7879 19.8785 23.7879 19.8785C23.7879 19.8785 23.7879 19.8785 23.7879 19.8785C23.7879 19.8785 23.7879 19.8785 23.7879 19.8785C23.7879 19.8785 23.7879 19.8785 23.7879 19.8785C23.7879 19.8785 23.7879 19.8785 23.7879 19.8785C23.7879 19.8785 23.7879 19.8785 23.7879 19.8785C23.7879 19.8785 23.7879 19.8785 23.7879 19.8785C23.7879 19.8785 23.7879 19.8785 23.7879 19.8785C23.7879 19.8785 23.7879 19.8785 23.7879 19.8785C23.7879 19.8785 23.7879 19.8785 23.7879 19.8785C23.7879 19.8785 23.7879 19.8785 23.7879 19.8785C23.7879 19.8785 23.7879 19.8785 23.7879 19.8785C23.7879 19.8785 23.7879 19.8785 23.7879 19.8785C23.7879 19.8785 23.7879 19.8785 23.7879 19.8785C23.7879 19.8785 23.7879 19.8785 23.7879 19.8785C23.7879 19.8785 23.788 19.8785 23.788 19.8785C23.788 19.8785 23.788 19.8785 23.788 19.8785C23.788 19.8785 23.788 19.8785 23.788 19.8785C23.788 19.8785 23.788 19.8785 23.788 19.8785C23.788 19.8785 23.788 19.8785 23.788 19.8785C23.788 19.8785 23.788 19.8785 23.788 19.8785C23.788 19.8785 23.788 19.8785 23.788 19.8785C23.788 19.8785 23.788 19.8785 23.788 19.8785C23.788 19.8785 23.788 19.8785 23.788 19.8785C23.788 19.8785 23.788 19.8785 23.788 19.8785C23.788 19.8785 23.788 19.8785 23.788 19.8785C23.788 19.8785 23.788 19.8785 23.788 19.8785C23.788 19.8785 23.788 19.8785 23.788 19.8785C23.788 19.8785 23.788 19.8785 23.788 19.8785C23.788 19.8785 23.788 19.8785 23.788 19.8785C23.788 19.8785 23.788 19.8785 23.788 19.8785C23.788 19.8785 23.788 19.8785 23.788 19.8785C23.788 19.8785 23.788 19.8785 23.788 19.8785C23.788 19.8785 23.788 19.8785 23.788 19.8785C23.788 19.8785 23.788 19.8785 23.788 19.8785C23.788 19.8785 23.788 19.8785 23.788 19.8785C23.788 19.8785 23.788 19.8785 23.788 19.8785C23.788 19.8785 23.788 19.8785 23.788 19.8785C23.788 19.8785 23.788 19.8785 23.788 19.8785C23.788 19.8785 23.788 19.8785 23.788 19.8785C23.788 19.8785 23.788 19.8785 23.788 19.8785C23.788 19.8785 23.788 19.8785 23.788 19.8785C23.788 19.8785 23.788 19.8785 23.788 19.8785C23.788 19.8785 23.788 19.8785 23.788 19.8785C23.788 19.8785 23.788 19.8785 23.788 19.8785C23.788 19.8785 23.788 19.8785 23.788 19.8785C23.788 19.8785 23.788 19.8785 23.788 19.8785C23.788 19.8785 23.788 19.8785 23.788 19.8785C23.788 19.8785 23.788 19.8785 23.788 19.8785C23.788 19.8785 23.788 19.8785 23.788 19.8785C23.788 19.8785 23.788 19.8785 23.788 19.8785C23.788 19.8785 23.788 19.8785 23.788 19.8785C23.788 19.8785 23.788 19.8785 23.788 19.8785C23.7881 19.8785 23.7881 19.8785 23.7881 19.8785C23.7881 19.8785 23.7881 19.8785 23.7881 19.8785C23.7881 19.8785 23.7881 19.8785 23.7881 19.8785C23.7881 19.8785 23.7881 19.8785 23.7881 19.8785C23.7881 19.8785 23.7881 19.8785 23.7881 19.8785C23.7881 19.8785 23.7881 19.8785 23.7881 19.8785C23.7881 19.8785 23.7881 19.8785 23.7881 19.8785C23.7881 19.8785 23.7881 19.8785 23.7881 19.8785C23.7881 19.8785 23.7881 19.8785 23.7881 19.8785C23.7881 19.8785 23.7881 19.8785 23.7881 19.8785C23.7881 19.8785 23.7881 19.8785 23.7881 19.8785C23.7881 19.8785 23.7881 19.8785 23.7881 19.8785C23.7881 19.8785 23.7881 19.8785 23.7881 19.8785C23.7881 19.8785 23.7881 19.8785 23.7881 19.8785C23.7881 19.8785 23.7881 19.8785 23.7881 19.8785C23.7881 19.8785 23.7881 19.8785 23.7881 19.8785C23.7881 19.8785 23.7881 19.8785 23.7881 19.8785C23.7881 19.8785 23.7881 19.8785 23.7881 19.8785C23.7881 19.8785 23.7881 19.8785 23.7881 19.8785C23.7881 19.8785 23.7881 19.8785 23.7881 19.8785V15.8785ZM23.7848 15.8785C22.5285 15.8798 21.4017 16.6373 20.9263 17.7999L24.6286 19.314C24.4898 19.6534 24.1556 19.8781 23.7889 19.8785L23.7848 15.8785ZM20.9227 17.8086C20.9228 17.8085 20.9227 17.8087 20.9224 17.8094C20.9222 17.8099 20.9216 17.8113 20.9211 17.8127C20.92 17.8155 20.9179 17.8206 20.9155 17.8267C20.9107 17.8387 20.9025 17.8594 20.8931 17.8849L24.6465 19.2677C24.6395 19.2868 24.6338 19.301 24.6316 19.3066C24.6305 19.3095 24.6297 19.3114 24.6299 19.311C24.63 19.3107 24.6301 19.3105 24.6305 19.3094C24.6309 19.3086 24.6315 19.3071 24.6321 19.3054L20.9227 17.8086ZM20.9008 17.8645L16.9441 28.2531L20.6822 29.6768L24.6388 19.2882L20.9008 17.8645ZM16.9442 28.2528C16.3829 29.7259 17.1228 31.3742 18.5948 31.9348L20.0186 28.1968C20.6102 28.4221 20.9078 29.0846 20.6821 29.6771L16.9442 28.2528ZM18.5948 31.9348C20.0671 32.4956 21.7155 31.7569 22.2766 30.2844L18.5388 28.8601C18.7643 28.2682 19.4268 27.9714 20.0186 28.1968L18.5948 31.9348ZM21.9143 21.4097L23.8483 26.5344L27.5906 25.122L25.6567 19.9974L21.9143 21.4097ZM25.7195 23.8282H21.8337V27.8282H25.7195V23.8282ZM23.7027 26.5401L25.6545 21.4154L21.9165 19.9917L19.9646 25.1163L23.7027 26.5401Z" fill="black" mask="url(#path-10-inside-5_104_46)"/>
<mask id="path-12-inside-6_104_46" fill="white">
<path d="M17.6667 19.7224C18.1379 19.7224 18.5198 19.3404 18.5198 18.8692C18.5198 18.3981 18.1379 18.0161 17.6667 18.0161H13.4272C12.956 18.0161 12.5741 18.3981 12.5741 18.8692V29.3291C12.5741 29.8002 12.956 30.1822 13.4272 30.1822C13.8985 30.1822 14.2804 29.8002 14.2804 29.3291V24.8532H17.3299C17.8011 24.8532 18.183 24.4713 18.183 24.0001C18.183 23.529 17.8011 23.147 17.3299 23.147H14.2804V19.7224H17.6667Z"/>
</mask>
<path d="M17.6667 19.7224C18.1379 19.7224 18.5198 19.3404 18.5198 18.8692C18.5198 18.3981 18.1379 18.0161 17.6667 18.0161H13.4272C12.956 18.0161 12.5741 18.3981 12.5741 18.8692V29.3291C12.5741 29.8002 12.956 30.1822 13.4272 30.1822C13.8985 30.1822 14.2804 29.8002 14.2804 29.3291V24.8532H17.3299C17.8011 24.8532 18.183 24.4713 18.183 24.0001C18.183 23.529 17.8011 23.147 17.3299 23.147H14.2804V19.7224H17.6667Z" fill="black"/>
<path d="M14.2804 24.8532V22.8532H12.2804V24.8532H14.2804ZM14.2804 23.147H12.2804V25.147H14.2804V23.147ZM14.2804 19.7224V17.7224H12.2804V19.7224H14.2804ZM17.6667 21.7224C19.2427 21.7224 20.5198 20.4448 20.5198 18.8692H16.5198C16.5198 18.236 17.0332 17.7224 17.6667 17.7224V21.7224ZM20.5198 18.8692C20.5198 17.2937 19.2427 16.0161 17.6667 16.0161V20.0161C17.0332 20.0161 16.5198 19.5025 16.5198 18.8692H20.5198ZM17.6667 16.0161H13.4272V20.0161H17.6667V16.0161ZM13.4272 16.0161C11.8512 16.0161 10.5741 17.2937 10.5741 18.8692H14.5741C14.5741 19.5025 14.0607 20.0161 13.4272 20.0161V16.0161ZM10.5741 18.8692V29.3291H14.5741V18.8692H10.5741ZM10.5741 29.3291C10.5741 30.9046 11.8512 32.1822 13.4272 32.1822V28.1822C14.0607 28.1822 14.5741 28.6958 14.5741 29.3291H10.5741ZM13.4272 32.1822C15.0032 32.1822 16.2804 30.9046 16.2804 29.3291H12.2804C12.2804 28.6958 12.7938 28.1822 13.4272 28.1822V32.1822ZM16.2804 29.3291V24.8532H12.2804V29.3291H16.2804ZM14.2804 26.8532H17.3299V22.8532H14.2804V26.8532ZM17.3299 26.8532C18.9059 26.8532 20.183 25.5757 20.183 24.0001H16.183C16.183 23.3669 16.6964 22.8532 17.3299 22.8532V26.8532ZM20.183 24.0001C20.183 22.4246 18.9059 21.147 17.3299 21.147V25.147C16.6964 25.147 16.183 24.6334 16.183 24.0001H20.183ZM17.3299 21.147H14.2804V25.147H17.3299V21.147ZM16.2804 23.147V19.7224H12.2804V23.147H16.2804ZM14.2804 21.7224H17.6667V17.7224H14.2804V21.7224Z" fill="black" mask="url(#path-12-inside-6_104_46)"/>
<path d="M37.4439 25.8503C37.4439 25.8504 37.4439 25.8504 37.444 25.8504L37.4439 25.8503ZM37.4439 25.8503L37.34 25.9543L38.4088 27.2309L38.3923 27.2143L37.2364 26.0583C37.2936 26.1153 37.3864 26.1153 37.4436 26.0581L37.3399 25.9544L37.2362 26.0581L37.236 26.058L37.3398 25.9542L37.3398 25.9542L36.7366 25.3509M37.4439 25.8503L37.9432 25.3509M37.9432 25.3509L38.3723 25.7801C38.3375 25.8413 38.3008 25.9014 38.2623 25.9603L39.0994 26.5073L39.8066 25.8002L39.5674 25.561C39.7289 25.1033 39.8169 24.6114 39.8169 24.0991C39.8169 21.6645 37.8361 19.6838 35.4016 19.6838C32.967 19.6838 30.9863 21.6645 30.9863 24.0991C30.9863 26.5338 32.967 28.5145 35.4016 28.5145C35.9596 28.5145 36.4936 28.4102 36.9853 28.2202L37.2024 28.4373L37.9095 27.7302L37.3401 26.9082C37.2901 26.9428 37.2392 26.9761 37.1874 27.0081L36.7366 26.5573C36.4035 26.2241 36.4035 25.6841 36.7366 25.3509M37.9432 25.3509L37.4438 25.8502L37.3399 25.9541L37.3399 25.9541L36.7366 25.3509M37.9432 25.3509C37.61 25.0178 37.0699 25.0177 36.7366 25.3509" fill="black" stroke="black" stroke-width="2"/>
</svg>
